<?xml version="1.0" encoding="UTF-8"?>
<svg xmlns="http://www.w3.org/2000/svg" xmlns:xlink="http://www.w3.org/1999/xlink" width="40pt" height="50pt" viewBox="0 0 40 50" version="1.1">
<g id="surface1">
<path style=" stroke:none;fill-rule:evenodd;fill:rgb(9.411765%,12.941176%,15.686275%);fill-opacity:1;" d="M 39.9375 20.917969 C 40.183594 19.769531 36.59375 13.292969 35.695312 12.929688 C 35.109375 12.683594 32.753906 12.574219 31.136719 12.5 C 30.238281 12.457031 30.59375 12.457031 30.59375 12.457031 C 30.59375 12.457031 30.613281 12.167969 30.660156 11.824219 C 28.117188 11.871094 27.546875 10.910156 27.546875 10.910156 C 28.621094 11.183594 30.539062 11.039062 31.75 10.382812 C 32.167969 10.15625 32.5 9.871094 32.6875 9.519531 C 32.730469 9.429688 32.769531 9.339844 32.796875 9.25 C 32.96875 8.742188 32.914062 8.183594 32.777344 7.683594 C 32.71875 7.460938 32.644531 7.25 32.566406 7.058594 C 32.347656 6.539062 32.105469 6.175781 32.105469 6.175781 C 31.753906 5.316406 31.402344 3.058594 31.402344 3.058594 C 32.386719 2.503906 32.105469 -0.632812 31.316406 0.117188 C 30.539062 0.847656 27.179688 1.4375 25.914062 1.894531 C 24.644531 2.363281 24.820312 3.371094 24.820312 3.371094 C 23.535156 3.527344 24.789062 8.664062 24.839844 9.640625 C 24.859375 10.074219 24.769531 11.03125 24.699219 11.746094 C 24.699219 11.746094 19.386719 13.070312 18.066406 14.324219 C 16.359375 15.960938 -8.292969 30.597656 3.003906 36.414062 C 3.003906 36.414062 2.179688 30.652344 7.660156 25.160156 C 7.367188 25.542969 4.179688 29.839844 4.144531 35.023438 C 5.152344 34.097656 6.804688 33.035156 9.285156 33.035156 C 12.570312 33.035156 14.914062 36.84375 17.457031 37.941406 C 18.085938 38.210938 20.496094 37.75 20.496094 37.75 C 20.496094 37.75 22.566406 31.539062 22.5 30.300781 C 22.375 29.382812 16.761719 25.828125 15.160156 25.863281 C 13.558594 25.898438 15.160156 19.214844 17.625 16.96875 C 16.253906 19.824219 14.667969 24.175781 16.304688 24.539062 C 18.628906 25.046875 23.464844 29.152344 23.464844 29.152344 C 23.640625 31.003906 20.671875 44.035156 18.9375 48.605469 L 16.441406 49.527344 L 16.363281 50 L 22.484375 50 L 23.808594 46.199219 L 28.871094 31.6875 L 30.136719 31.828125 L 30.417969 36.480469 L 31.195312 49.925781 L 31.398438 50 L 37.925781 50 L 37.847656 49.527344 L 35.347656 48.605469 C 35.28125 48.433594 34.628906 27.414062 34.628906 27.414062 C 34.628906 27.414062 39.710938 22.066406 39.9375 20.917969 Z M 35.519531 18.308594 C 35.894531 18.601562 36.488281 19.46875 36.75 20.066406 C 36.84375 20.28125 36.894531 20.464844 36.875 20.570312 C 36.859375 20.660156 36.804688 20.789062 36.726562 20.941406 C 36.445312 21.464844 35.839844 22.25 35.238281 22.691406 C 35.363281 21.507812 35.464844 19.699219 35.519531 18.308594 Z M 20.175781 21.71875 C 20.140625 21.421875 21.460938 19.089844 21.703125 19.074219 C 22.160156 19.25 22.515625 19.628906 22.722656 20.066406 C 22.851562 20.328125 22.925781 20.609375 22.941406 20.882812 C 22.96875 21.320312 23.003906 21.882812 23.042969 22.445312 C 23.121094 23.660156 23.203125 24.886719 23.203125 24.886719 C 22.515625 24.246094 20.210938 21.996094 20.175781 21.71875 Z M 20.175781 21.71875 "/>
</g>
</svg>
