<?xml version="1.0" encoding="UTF-8"?>
<svg xmlns="http://www.w3.org/2000/svg" xmlns:xlink="http://www.w3.org/1999/xlink" width="76pt" height="76pt" viewBox="0 0 76 76" version="1.1">
<g id="surface1">
<path style=" stroke:none;fill-rule:nonzero;fill:rgb(100%,100%,100%);fill-opacity:1;" d="M 0 0 L 75.839844 0 L 75.839844 75.839844 L 0 75.839844 Z M 0 0 "/>
<path style=" stroke:none;fill-rule:evenodd;fill:rgb(1.960784%,58.039216%,60.784314%);fill-opacity:1;" d="M 62.003906 32.601562 C 62.320312 31.101562 57.691406 22.660156 56.53125 22.183594 C 55.777344 21.863281 52.738281 21.722656 50.65625 21.625 C 49.492188 21.570312 49.953125 21.570312 49.953125 21.570312 C 49.953125 21.570312 49.976562 21.195312 50.035156 20.746094 C 46.753906 20.800781 46.023438 19.554688 46.023438 19.554688 C 47.410156 19.910156 49.878906 19.722656 51.445312 18.867188 C 51.980469 18.574219 52.410156 18.199219 52.652344 17.734375 C 52.710938 17.621094 52.761719 17.507812 52.789062 17.386719 C 53.011719 16.726562 52.941406 15.996094 52.773438 15.34375 C 52.691406 15.054688 52.597656 14.777344 52.496094 14.53125 C 52.210938 13.855469 51.898438 13.378906 51.898438 13.378906 C 51.449219 12.257812 50.996094 9.3125 50.996094 9.3125 C 52.265625 8.589844 51.898438 4.503906 50.882812 5.476562 C 49.882812 6.429688 45.546875 7.203125 43.914062 7.796875 C 42.277344 8.410156 42.503906 9.726562 42.503906 9.726562 C 40.847656 9.929688 42.460938 16.625 42.527344 17.898438 C 42.550781 18.464844 42.4375 19.710938 42.34375 20.644531 C 42.34375 20.644531 35.496094 22.367188 33.789062 24.003906 C 31.585938 26.136719 -0.210938 45.21875 14.363281 52.804688 C 14.363281 52.804688 13.296875 45.296875 20.371094 38.132812 C 19.988281 38.636719 15.882812 44.230469 15.835938 50.992188 C 17.132812 49.789062 19.265625 48.402344 22.464844 48.402344 C 26.699219 48.402344 29.726562 53.367188 33.003906 54.796875 C 33.816406 55.148438 36.925781 54.542969 36.925781 54.542969 C 36.925781 54.542969 39.597656 46.449219 39.507812 44.835938 C 39.351562 43.636719 32.113281 39.003906 30.042969 39.050781 C 27.980469 39.09375 30.042969 30.382812 33.222656 27.453125 C 31.453125 31.175781 29.40625 36.847656 31.515625 37.324219 C 34.515625 37.980469 40.757812 43.339844 40.757812 43.339844 C 40.980469 45.746094 37.152344 62.738281 34.914062 68.699219 L 31.695312 69.898438 L 31.59375 70.515625 L 39.492188 70.515625 L 41.203125 65.558594 L 47.726562 46.636719 L 49.363281 46.824219 L 49.722656 52.890625 L 50.726562 70.417969 L 50.984375 70.515625 L 59.40625 70.515625 L 59.308594 69.898438 L 56.085938 68.699219 C 55.996094 68.472656 55.152344 41.066406 55.152344 41.066406 C 55.152344 41.066406 61.707031 34.097656 62.003906 32.601562 Z M 56.304688 29.195312 C 56.785156 29.574219 57.550781 30.703125 57.886719 31.488281 C 58.011719 31.765625 58.078125 32.003906 58.050781 32.140625 C 58.03125 32.261719 57.960938 32.429688 57.855469 32.625 C 57.496094 33.308594 56.714844 34.332031 55.941406 34.910156 C 56.101562 33.367188 56.234375 31.011719 56.304688 29.195312 Z M 36.511719 33.644531 C 36.46875 33.257812 38.171875 30.214844 38.488281 30.195312 C 39.070312 30.421875 39.53125 30.917969 39.800781 31.488281 C 39.964844 31.828125 40.058594 32.199219 40.082031 32.554688 C 40.117188 33.121094 40.164062 33.859375 40.214844 34.59375 C 40.3125 36.175781 40.417969 37.773438 40.417969 37.773438 C 39.535156 36.9375 36.554688 34.007812 36.511719 33.644531 Z M 36.511719 33.644531 "/>
</g>
</svg>
