<?xml version="1.0" encoding="UTF-8"?>
<svg xmlns="http://www.w3.org/2000/svg" xmlns:xlink="http://www.w3.org/1999/xlink" width="20pt" height="24pt" viewBox="0 0 20 24" version="1.1">
<g id="surface1">
<path style=" stroke:none;fill-rule:evenodd;fill:rgb(9.411765%,12.941176%,15.686275%);fill-opacity:1;" d="M 15.714844 1.5 C 15.714844 1.5 16.050781 2.484375 16.066406 3.03125 C 16.066406 3.03125 16.71875 3.988281 16.359375 4.671875 C 15.996094 5.347656 14.503906 5.535156 13.78125 5.355469 C 13.78125 5.355469 14.066406 5.59375 14.734375 5.707031 C 14.734375 5.707031 14.769531 6.023438 14.789062 6.082031 C 14.804688 6.132812 17.40625 6.160156 17.867188 6.347656 C 18.316406 6.527344 20.113281 9.707031 19.992188 10.269531 C 19.878906 10.832031 17.425781 12.707031 17.425781 12.707031 C 16.621094 16.246094 15.160156 20.140625 12.867188 23.109375 C 11.445312 24.9375 11.085938 23.679688 11.234375 21.800781 C 11.253906 21.59375 11.773438 21.363281 11.773438 21.363281 C 11.773438 21.363281 12.011719 17.152344 11.738281 14.3125 C 11.738281 14.3125 9.3125 12.296875 8.148438 12.046875 C 7.328125 11.867188 8.121094 9.730469 8.808594 8.328125 C 7.574219 9.433594 6.773438 12.714844 7.574219 12.699219 C 8.378906 12.679688 11.191406 14.425781 11.253906 14.875 C 11.308594 15.242188 11.28125 17.84375 11.273438 18.886719 C 7.628906 18.78125 6.6875 16.21875 4.632812 16.21875 C 3.386719 16.21875 2.558594 16.738281 2.054688 17.191406 C 2.074219 14.527344 3.828125 12.339844 3.828125 12.339844 C 1.070312 15.039062 1.484375 17.878906 1.484375 17.878906 C -4.179688 15.023438 8.175781 7.835938 9.03125 7.03125 C 9.691406 6.414062 10.421875 6.15625 10.378906 6.21875 C 10.335938 6.269531 10.195312 6.5 10.195312 6.5 C 10.707031 5.988281 12.355469 5.765625 12.355469 5.765625 C 12.390625 5.414062 12.433594 4.945312 12.425781 4.730469 C 12.398438 4.253906 11.773438 1.730469 12.417969 1.65625 C 12.417969 1.65625 12.328125 1.160156 12.964844 0.929688 C 13.597656 0.707031 15.28125 0.414062 15.671875 0.0546875 C 16.066406 -0.3125 16.207031 1.226562 15.714844 1.5 Z M 10.855469 9.363281 C 10.730469 9.371094 10.070312 10.519531 10.089844 10.664062 C 10.105469 10.800781 11.261719 11.902344 11.605469 12.21875 C 11.605469 12.21875 11.515625 10.929688 11.472656 10.253906 C 11.457031 9.894531 11.21875 9.5 10.855469 9.363281 Z M 17.636719 11.140625 C 18.023438 10.859375 18.421875 10.296875 18.457031 10.097656 C 18.492188 9.902344 18.035156 9.183594 17.777344 8.988281 C 17.75 9.671875 17.699219 10.5625 17.636719 11.140625 Z M 17.636719 11.140625 "/>
</g>
</svg>
