<?xml version="1.0" encoding="UTF-8"?>
<svg xmlns="http://www.w3.org/2000/svg" xmlns:xlink="http://www.w3.org/1999/xlink" width="40pt" height="49pt" viewBox="0 0 40 49" version="1.1">
<g id="surface1">
<path style=" stroke:none;fill-rule:evenodd;fill:rgb(9.411765%,12.941176%,15.686275%);fill-opacity:1;" d="M 31.429688 3.0625 C 31.429688 3.0625 32.097656 5.070312 32.132812 6.1875 C 32.132812 6.1875 33.4375 8.140625 32.714844 9.539062 C 31.992188 10.917969 29.011719 11.300781 27.566406 10.933594 C 27.566406 10.933594 28.128906 11.421875 29.46875 11.652344 C 29.46875 11.652344 29.539062 12.296875 29.578125 12.417969 C 29.613281 12.523438 34.816406 12.574219 35.734375 12.960938 C 36.632812 13.324219 40.230469 19.816406 39.984375 20.96875 C 39.753906 22.117188 34.851562 25.941406 34.851562 25.941406 C 33.246094 33.164062 30.316406 41.121094 25.730469 47.179688 C 22.890625 50.914062 22.167969 48.347656 22.46875 44.507812 C 22.503906 44.089844 23.546875 43.617188 23.546875 43.617188 C 23.546875 43.617188 24.019531 35.015625 23.476562 29.222656 C 23.476562 29.222656 18.625 25.105469 16.296875 24.597656 C 14.65625 24.230469 16.242188 19.867188 17.621094 17.007812 C 15.152344 19.257812 13.546875 25.960938 15.152344 25.921875 C 16.757812 25.886719 22.382812 29.449219 22.507812 30.371094 C 22.613281 31.121094 22.5625 36.425781 22.542969 38.558594 C 15.261719 38.347656 13.375 33.113281 9.261719 33.113281 C 6.777344 33.113281 5.117188 34.175781 4.113281 35.101562 C 4.148438 29.660156 7.65625 25.191406 7.65625 25.191406 C 2.136719 30.703125 2.964844 36.5 2.964844 36.5 C -8.359375 30.671875 16.351562 15.996094 18.058594 14.351562 C 19.382812 13.097656 20.847656 12.574219 20.757812 12.695312 C 20.671875 12.800781 20.390625 13.273438 20.390625 13.273438 C 21.414062 12.222656 24.710938 11.773438 24.710938 11.773438 C 24.78125 11.054688 24.867188 10.097656 24.851562 9.660156 C 24.796875 8.683594 23.546875 3.535156 24.835938 3.378906 C 24.835938 3.378906 24.65625 2.367188 25.929688 1.894531 C 27.199219 1.441406 30.566406 0.847656 31.34375 0.113281 C 32.136719 -0.636719 32.417969 2.507812 31.429688 3.0625 Z M 21.710938 19.117188 C 21.464844 19.136719 20.140625 21.472656 20.175781 21.773438 C 20.210938 22.050781 22.523438 24.304688 23.210938 24.949219 C 23.210938 24.949219 23.03125 22.3125 22.945312 20.933594 C 22.910156 20.199219 22.433594 19.398438 21.710938 19.117188 Z M 35.273438 22.75 C 36.046875 22.171875 36.84375 21.019531 36.914062 20.617188 C 36.984375 20.21875 36.066406 18.75 35.554688 18.351562 C 35.503906 19.746094 35.398438 21.5625 35.273438 22.75 Z M 35.273438 22.75 "/>
</g>
</svg>
