<?xml version="1.0" encoding="utf-8"?>
<!-- Generator: Adobe Illustrator 23.0.5, SVG Export Plug-In . SVG Version: 6.00 Build 0)  -->
<svg version="1.1" id="Layer_1" xmlns="http://www.w3.org/2000/svg" xmlns:xlink="http://www.w3.org/1999/xlink" x="0px" y="0px"
	 viewBox="0 0 209.97 260.03" style="enable-background:new 0 0 209.97 260.03;" xml:space="preserve">
<style type="text/css">
	.st0{fill-rule:evenodd;clip-rule:evenodd;fill:#027C8A;}
	.st1{enable-background:new    ;}
	.st2{fill:#182128;}
	.st3{fill-rule:evenodd;clip-rule:evenodd;fill:#FFFFFF;}
	.st4{fill:#FFFFFF;}
	.st5{fill-rule:evenodd;clip-rule:evenodd;fill:#182128;}
</style>
<path class="st0" d="M164.99,16.26c0,0,3.52,10.65,3.7,16.58c0,0,6.85,10.37,3.06,17.78c-3.8,7.32-19.45,9.35-27.04,7.41
	c0,0,2.96,2.59,10,3.8c0,0,0.37,3.43,0.56,4.07c0.19,0.56,27.5,0.83,32.32,2.87c4.72,1.94,23.61,36.39,22.32,42.5
	c-1.2,6.11-26.95,26.39-26.95,26.39c-8.43,38.34-23.8,80.56-47.88,112.7c-14.91,19.82-18.71,6.2-17.13-14.17
	c0.19-2.22,5.65-4.72,5.65-4.72s2.5-45.65-0.37-76.4c0,0-25.47-21.85-37.69-24.54c-8.61-1.94-0.28-25.1,6.95-40.28
	c-12.96,11.95-21.39,47.51-12.96,47.32c8.43-0.19,37.97,18.71,38.62,23.61c0.56,3.98,0.28,32.13,0.19,43.43
	c-38.24-1.11-48.15-28.89-69.73-28.89c-13.06,0-21.76,5.65-27.04,10.56c0.19-28.89,18.61-52.6,18.61-52.6
	c-28.98,29.26-24.63,60.01-24.63,60.01C-43.92,162.76,85.82,84.88,94.8,76.17c6.95-6.67,14.63-9.45,14.17-8.8
	c-0.46,0.56-1.94,3.06-1.94,3.06c5.37-5.56,22.69-7.96,22.69-7.96c0.37-3.8,0.83-8.89,0.74-11.2c-0.28-5.19-6.85-32.5-0.09-33.34
	c0,0-0.93-5.37,5.74-7.87c6.67-2.41,24.35-5.56,28.43-9.45C168.7-3.37,170.18,13.3,164.99,16.26L164.99,16.26z M113.97,101.46
	c-1.3,0.09-8.24,12.5-8.06,14.08c0.19,1.48,12.32,13.43,15.93,16.85c0,0-0.93-13.98-1.39-21.3
	C120.27,107.2,117.77,102.94,113.97,101.46L113.97,101.46z M185.18,120.72c4.07-3.06,8.24-9.17,8.61-11.3
	c0.37-2.13-4.44-9.91-7.13-12.04C186.38,104.79,185.83,114.42,185.18,120.72L185.18,120.72z"/>
</svg>
