<?xml version="1.0" encoding="UTF-8"?>
<svg xmlns="http://www.w3.org/2000/svg" xmlns:xlink="http://www.w3.org/1999/xlink" width="55pt" height="50pt" viewBox="0 0 55 50" version="1.1">
<defs>
<clipPath id="clip1">
  <rect width="55" height="50"/>
</clipPath>
<g id="surface6" clip-path="url(#clip1)">
<path style=" stroke:none;fill-rule:nonzero;fill:rgb(9.411765%,12.941176%,15.686275%);fill-opacity:1;" d="M 0 49.671875 L 0 45.238281 C 0 45.097656 0.0742188 45.011719 0.210938 45.011719 L 0.398438 45.011719 C 0.53125 45.011719 0.609375 45.097656 0.609375 45.238281 L 0.609375 49.671875 C 0.609375 49.804688 0.53125 49.894531 0.398438 49.894531 L 0.210938 49.894531 C 0.0742188 49.894531 0 49.804688 0 49.671875 Z M 0 49.671875 "/>
<path style=" stroke:none;fill-rule:nonzero;fill:rgb(9.411765%,12.941176%,15.686275%);fill-opacity:1;" d="M 5.640625 45.238281 L 5.640625 49.773438 C 5.640625 49.875 5.566406 49.933594 5.484375 49.933594 L 5.453125 49.933594 C 5.371094 49.933594 5.296875 49.867188 5.207031 49.761719 L 2.265625 46.214844 L 2.265625 49.667969 C 2.265625 49.804688 2.1875 49.894531 2.054688 49.894531 L 1.882812 49.894531 C 1.746094 49.894531 1.671875 49.804688 1.671875 49.667969 L 1.671875 45.132812 C 1.671875 45.035156 1.746094 44.976562 1.828125 44.976562 L 1.859375 44.976562 C 1.941406 44.976562 2.023438 45.042969 2.109375 45.148438 L 5.050781 48.695312 L 5.050781 45.238281 C 5.050781 45.097656 5.125 45.011719 5.257812 45.011719 L 5.433594 45.011719 C 5.574219 45.011719 5.640625 45.097656 5.640625 45.238281 Z M 5.640625 45.238281 "/>
<path style=" stroke:none;fill-rule:nonzero;fill:rgb(9.411765%,12.941176%,15.686275%);fill-opacity:1;" d="M 7.746094 49.671875 L 7.746094 45.546875 L 6.355469 45.546875 C 6.222656 45.546875 6.140625 45.472656 6.140625 45.335938 L 6.140625 45.226562 C 6.140625 45.089844 6.222656 45.015625 6.355469 45.015625 L 9.742188 45.015625 C 9.882812 45.015625 9.964844 45.089844 9.964844 45.226562 L 9.964844 45.335938 C 9.964844 45.472656 9.882812 45.546875 9.742188 45.546875 L 8.351562 45.546875 L 8.351562 49.671875 C 8.351562 49.804688 8.285156 49.894531 8.152344 49.894531 L 7.957031 49.894531 C 7.820312 49.894531 7.746094 49.804688 7.746094 49.671875 Z M 7.746094 49.671875 "/>
<path style=" stroke:none;fill-rule:nonzero;fill:rgb(9.411765%,12.941176%,15.686275%);fill-opacity:1;" d="M 10.460938 49.671875 L 10.460938 45.238281 C 10.460938 45.097656 10.542969 45.011719 10.6875 45.011719 L 13.515625 45.011719 C 13.652344 45.011719 13.734375 45.089844 13.734375 45.222656 L 13.734375 45.335938 C 13.734375 45.46875 13.652344 45.546875 13.515625 45.546875 L 11.070312 45.546875 L 11.070312 47.167969 L 12.96875 47.167969 C 13.101562 47.167969 13.191406 47.242188 13.191406 47.378906 L 13.191406 47.484375 C 13.191406 47.625 13.101562 47.695312 12.96875 47.695312 L 11.070312 47.695312 L 11.070312 49.359375 L 13.515625 49.359375 C 13.652344 49.359375 13.742188 49.4375 13.742188 49.570312 L 13.742188 49.683594 C 13.742188 49.820312 13.652344 49.894531 13.515625 49.894531 L 10.6875 49.894531 C 10.542969 49.894531 10.460938 49.804688 10.460938 49.671875 Z M 10.460938 49.671875 "/>
<path style=" stroke:none;fill-rule:nonzero;fill:rgb(9.411765%,12.941176%,15.686275%);fill-opacity:1;" d="M 17.914062 49.671875 C 17.988281 49.8125 17.921875 49.894531 17.808594 49.894531 L 17.539062 49.894531 C 17.394531 49.894531 17.363281 49.851562 17.289062 49.722656 L 16.246094 47.851562 L 15.007812 47.851562 L 15.007812 49.667969 C 15.007812 49.804688 14.933594 49.894531 14.796875 49.894531 L 14.609375 49.894531 C 14.476562 49.894531 14.402344 49.804688 14.402344 49.667969 L 14.402344 45.238281 C 14.402344 45.09375 14.484375 45.011719 14.625 45.011719 L 16.261719 45.011719 C 17.394531 45.011719 17.996094 45.546875 17.996094 46.4375 C 17.996094 47.152344 17.597656 47.625 16.871094 47.792969 Z M 15.007812 47.347656 L 16.390625 47.347656 C 17.011719 47.347656 17.375 46.964844 17.375 46.445312 C 17.375 45.921875 17.011719 45.546875 16.390625 45.546875 L 15.007812 45.546875 Z M 15.007812 47.347656 "/>
<path style=" stroke:none;fill-rule:nonzero;fill:rgb(9.411765%,12.941176%,15.686275%);fill-opacity:1;" d="M 22.640625 45.222656 L 20.605469 49.753906 C 20.546875 49.890625 20.496094 49.933594 20.40625 49.933594 L 20.367188 49.933594 C 20.269531 49.933594 20.226562 49.882812 20.167969 49.753906 L 18.132812 45.222656 C 18.082031 45.109375 18.15625 45.011719 18.277344 45.011719 L 18.539062 45.011719 C 18.671875 45.011719 18.746094 45.082031 18.808594 45.222656 L 20.390625 48.875 L 21.980469 45.222656 C 22.039062 45.082031 22.113281 45.011719 22.25 45.011719 L 22.496094 45.011719 C 22.617188 45.011719 22.683594 45.109375 22.640625 45.222656 Z M 22.640625 45.222656 "/>
<path style=" stroke:none;fill-rule:nonzero;fill:rgb(9.411765%,12.941176%,15.686275%);fill-opacity:1;" d="M 23.203125 49.671875 L 23.203125 45.238281 C 23.203125 45.097656 23.277344 45.011719 23.414062 45.011719 L 23.601562 45.011719 C 23.734375 45.011719 23.8125 45.097656 23.8125 45.238281 L 23.8125 49.671875 C 23.8125 49.804688 23.734375 49.894531 23.601562 49.894531 L 23.414062 49.894531 C 23.277344 49.894531 23.203125 49.804688 23.203125 49.671875 Z M 23.203125 49.671875 "/>
<path style=" stroke:none;fill-rule:nonzero;fill:rgb(9.411765%,12.941176%,15.686275%);fill-opacity:1;" d="M 24.878906 49.671875 L 24.878906 45.238281 C 24.878906 45.097656 24.960938 45.011719 25.101562 45.011719 L 27.933594 45.011719 C 28.066406 45.011719 28.148438 45.089844 28.148438 45.222656 L 28.148438 45.335938 C 28.148438 45.46875 28.066406 45.546875 27.933594 45.546875 L 25.484375 45.546875 L 25.484375 47.167969 L 27.382812 47.167969 C 27.519531 47.167969 27.609375 47.242188 27.609375 47.378906 L 27.609375 47.484375 C 27.609375 47.625 27.519531 47.695312 27.382812 47.695312 L 25.484375 47.695312 L 25.484375 49.359375 L 27.933594 49.359375 C 28.066406 49.359375 28.15625 49.4375 28.15625 49.570312 L 28.15625 49.683594 C 28.15625 49.820312 28.066406 49.894531 27.933594 49.894531 L 25.101562 49.894531 C 24.960938 49.894531 24.878906 49.804688 24.878906 49.671875 Z M 24.878906 49.671875 "/>
<path style=" stroke:none;fill-rule:nonzero;fill:rgb(9.411765%,12.941176%,15.686275%);fill-opacity:1;" d="M 34.945312 45.222656 L 33.289062 49.753906 C 33.246094 49.890625 33.191406 49.933594 33.09375 49.933594 L 33.070312 49.933594 C 32.980469 49.933594 32.921875 49.890625 32.878906 49.753906 L 31.625 46.183594 L 30.402344 49.753906 C 30.347656 49.890625 30.296875 49.933594 30.199219 49.933594 L 30.183594 49.933594 C 30.085938 49.933594 30.035156 49.890625 29.980469 49.753906 L 28.332031 45.222656 C 28.285156 45.109375 28.351562 45.011719 28.472656 45.011719 L 28.730469 45.011719 C 28.863281 45.011719 28.960938 45.082031 29.007812 45.222656 L 30.207031 48.730469 L 31.429688 45.152344 C 31.480469 45.019531 31.527344 44.976562 31.625 44.976562 L 31.65625 44.976562 C 31.753906 44.976562 31.804688 45.019531 31.847656 45.152344 L 33.101562 48.761719 L 34.332031 45.222656 C 34.386719 45.078125 34.484375 45.011719 34.617188 45.011719 L 34.804688 45.011719 C 34.925781 45.011719 34.984375 45.105469 34.945312 45.222656 Z M 34.945312 45.222656 "/>
<path style=" stroke:none;fill-rule:nonzero;fill:rgb(9.411765%,12.941176%,15.686275%);fill-opacity:1;" d="M 36.867188 49.671875 L 36.867188 45.238281 C 36.867188 45.097656 36.945312 45.011719 37.078125 45.011719 L 37.265625 45.011719 C 37.398438 45.011719 37.476562 45.097656 37.476562 45.238281 L 37.476562 47.167969 L 40.230469 47.167969 L 40.230469 45.238281 C 40.230469 45.097656 40.304688 45.011719 40.441406 45.011719 L 40.632812 45.011719 C 40.769531 45.011719 40.835938 45.097656 40.835938 45.238281 L 40.835938 49.671875 C 40.835938 49.804688 40.769531 49.894531 40.632812 49.894531 L 40.441406 49.894531 C 40.304688 49.894531 40.230469 49.804688 40.230469 49.671875 L 40.230469 47.703125 L 37.476562 47.703125 L 37.476562 49.671875 C 37.476562 49.804688 37.398438 49.894531 37.265625 49.894531 L 37.078125 49.894531 C 36.945312 49.894531 36.867188 49.804688 36.867188 49.671875 Z M 36.867188 49.671875 "/>
<path style=" stroke:none;fill-rule:nonzero;fill:rgb(9.411765%,12.941176%,15.686275%);fill-opacity:1;" d="M 41.902344 49.671875 L 41.902344 45.238281 C 41.902344 45.097656 41.988281 45.011719 42.128906 45.011719 L 44.960938 45.011719 C 45.09375 45.011719 45.175781 45.089844 45.175781 45.222656 L 45.175781 45.335938 C 45.175781 45.46875 45.09375 45.546875 44.960938 45.546875 L 42.511719 45.546875 L 42.511719 47.167969 L 44.410156 47.167969 C 44.546875 47.167969 44.636719 47.242188 44.636719 47.378906 L 44.636719 47.484375 C 44.636719 47.625 44.546875 47.695312 44.410156 47.695312 L 42.511719 47.695312 L 42.511719 49.359375 L 44.960938 49.359375 C 45.09375 49.359375 45.183594 49.4375 45.183594 49.570312 L 45.183594 49.683594 C 45.183594 49.820312 45.09375 49.894531 44.960938 49.894531 L 42.128906 49.894531 C 41.988281 49.894531 41.902344 49.804688 41.902344 49.671875 Z M 41.902344 49.671875 "/>
<path style=" stroke:none;fill-rule:nonzero;fill:rgb(9.411765%,12.941176%,15.686275%);fill-opacity:1;" d="M 49.355469 49.671875 C 49.429688 49.8125 49.363281 49.894531 49.25 49.894531 L 48.980469 49.894531 C 48.839844 49.894531 48.808594 49.851562 48.734375 49.722656 L 47.6875 47.851562 L 46.453125 47.851562 L 46.453125 49.667969 C 46.453125 49.804688 46.375 49.894531 46.242188 49.894531 L 46.054688 49.894531 C 45.917969 49.894531 45.84375 49.804688 45.84375 49.667969 L 45.84375 45.238281 C 45.84375 45.09375 45.925781 45.011719 46.070312 45.011719 L 47.707031 45.011719 C 48.839844 45.011719 49.4375 45.546875 49.4375 46.4375 C 49.4375 47.152344 49.039062 47.625 48.3125 47.792969 Z M 46.453125 47.347656 L 47.832031 47.347656 C 48.457031 47.347656 48.816406 46.964844 48.816406 46.445312 C 48.816406 45.921875 48.457031 45.546875 47.832031 45.546875 L 46.453125 45.546875 Z M 46.453125 47.347656 "/>
<path style=" stroke:none;fill-rule:nonzero;fill:rgb(9.411765%,12.941176%,15.686275%);fill-opacity:1;" d="M 49.828125 47.453125 C 49.828125 46.003906 50.949219 44.921875 52.410156 44.921875 C 53.875 44.921875 55 46.003906 55 47.453125 C 55 48.90625 53.875 49.988281 52.410156 49.988281 C 50.949219 49.984375 49.828125 48.902344 49.828125 47.453125 Z M 54.382812 47.453125 C 54.382812 46.304688 53.527344 45.480469 52.410156 45.480469 C 51.300781 45.480469 50.445312 46.304688 50.445312 47.453125 C 50.445312 48.605469 51.300781 49.429688 52.410156 49.429688 C 53.527344 49.429688 54.382812 48.605469 54.382812 47.453125 Z M 54.382812 47.453125 "/>
</g>
</defs>
<g id="surface1">
<path style=" stroke:none;fill-rule:evenodd;fill:rgb(9.411765%,12.941176%,15.686275%);fill-opacity:1;" d="M 36.371094 2.507812 C 36.371094 2.507812 36.910156 4.140625 36.9375 5.050781 C 36.9375 5.050781 37.988281 6.640625 37.40625 7.777344 C 36.824219 8.902344 34.425781 9.210938 33.261719 8.914062 C 33.261719 8.914062 33.71875 9.3125 34.796875 9.496094 C 34.796875 9.496094 34.851562 10.023438 34.882812 10.121094 C 34.910156 10.207031 39.09375 10.25 39.832031 10.5625 C 40.554688 10.859375 43.449219 16.144531 43.253906 17.082031 C 43.070312 18.019531 39.125 21.128906 39.125 21.128906 C 37.832031 27.007812 35.476562 33.484375 31.789062 38.414062 C 29.503906 41.453125 28.921875 39.363281 29.164062 36.238281 C 29.191406 35.898438 30.03125 35.515625 30.03125 35.515625 C 30.03125 35.515625 30.414062 28.515625 29.972656 23.796875 C 29.972656 23.796875 26.070312 20.445312 24.199219 20.035156 C 22.878906 19.738281 24.15625 16.183594 25.261719 13.855469 C 23.277344 15.6875 21.984375 21.144531 23.277344 21.113281 C 24.570312 21.085938 29.09375 23.984375 29.195312 24.734375 C 29.28125 25.347656 29.238281 29.664062 29.222656 31.394531 C 23.363281 31.226562 21.847656 26.964844 18.539062 26.964844 C 16.539062 26.964844 15.207031 27.832031 14.398438 28.585938 C 14.425781 24.152344 17.25 20.519531 17.25 20.519531 C 12.808594 25.003906 13.476562 29.722656 13.476562 29.722656 C 4.367188 24.976562 24.246094 13.03125 25.621094 11.699219 C 26.683594 10.675781 27.863281 10.25 27.792969 10.347656 C 27.71875 10.433594 27.492188 10.816406 27.492188 10.816406 C 28.316406 9.964844 30.96875 9.597656 30.96875 9.597656 C 31.027344 9.015625 31.097656 8.234375 31.082031 7.878906 C 31.039062 7.082031 30.035156 2.894531 31.070312 2.765625 C 31.070312 2.765625 30.925781 1.941406 31.949219 1.558594 C 32.972656 1.1875 35.679688 0.707031 36.304688 0.109375 C 36.9375 -0.503906 37.164062 2.054688 36.371094 2.507812 Z M 28.554688 15.574219 C 28.355469 15.589844 27.292969 17.492188 27.320312 17.734375 C 27.347656 17.960938 29.207031 19.796875 29.757812 20.320312 C 29.757812 20.320312 29.617188 18.175781 29.546875 17.054688 C 29.519531 16.457031 29.132812 15.804688 28.554688 15.574219 Z M 39.464844 18.53125 C 40.085938 18.0625 40.726562 17.125 40.78125 16.796875 C 40.839844 16.46875 40.101562 15.277344 39.691406 14.949219 C 39.648438 16.085938 39.5625 17.5625 39.464844 18.53125 Z M 39.464844 18.53125 "/>
<use xlink:href="#surface6"/>
</g>
</svg>
