<?xml version="1.0" encoding="UTF-8"?>
<svg xmlns="http://www.w3.org/2000/svg" xmlns:xlink="http://www.w3.org/1999/xlink" width="60pt" height="55pt" viewBox="0 0 60 55" version="1.1">
<defs>
<clipPath id="clip1">
  <rect width="60" height="55"/>
</clipPath>
<g id="surface6" clip-path="url(#clip1)">
<path style=" stroke:none;fill-rule:nonzero;fill:rgb(9.411765%,12.941176%,15.686275%);fill-opacity:1;" d="M 0 54.636719 L 0 49.761719 C 0 49.605469 0.0820312 49.515625 0.230469 49.515625 L 0.433594 49.515625 C 0.582031 49.515625 0.664062 49.605469 0.664062 49.761719 L 0.664062 54.636719 C 0.664062 54.785156 0.582031 54.886719 0.433594 54.886719 L 0.230469 54.886719 C 0.0820312 54.886719 0 54.785156 0 54.636719 Z M 0 54.636719 "/>
<path style=" stroke:none;fill-rule:nonzero;fill:rgb(9.411765%,12.941176%,15.686275%);fill-opacity:1;" d="M 6.15625 49.761719 L 6.15625 54.753906 C 6.15625 54.859375 6.074219 54.925781 5.984375 54.925781 L 5.949219 54.925781 C 5.859375 54.925781 5.777344 54.851562 5.679688 54.734375 L 2.46875 50.835938 L 2.46875 54.636719 C 2.46875 54.785156 2.386719 54.882812 2.242188 54.882812 L 2.050781 54.882812 C 1.90625 54.882812 1.824219 54.785156 1.824219 54.636719 L 1.824219 49.644531 C 1.824219 49.539062 1.90625 49.472656 1.996094 49.472656 L 2.027344 49.472656 C 2.121094 49.472656 2.210938 49.546875 2.300781 49.664062 L 5.507812 53.5625 L 5.507812 49.761719 C 5.507812 49.605469 5.589844 49.515625 5.738281 49.515625 L 5.925781 49.515625 C 6.082031 49.515625 6.15625 49.605469 6.15625 49.761719 Z M 6.15625 49.761719 "/>
<path style=" stroke:none;fill-rule:nonzero;fill:rgb(9.411765%,12.941176%,15.686275%);fill-opacity:1;" d="M 8.449219 54.636719 L 8.449219 50.101562 L 6.933594 50.101562 C 6.789062 50.101562 6.695312 50.019531 6.695312 49.871094 L 6.695312 49.746094 C 6.695312 49.597656 6.789062 49.515625 6.933594 49.515625 L 10.625 49.515625 C 10.78125 49.515625 10.871094 49.597656 10.871094 49.746094 L 10.871094 49.871094 C 10.871094 50.019531 10.78125 50.101562 10.625 50.101562 L 9.113281 50.101562 L 9.113281 54.636719 C 9.113281 54.785156 9.039062 54.886719 8.890625 54.886719 L 8.679688 54.886719 C 8.53125 54.886719 8.449219 54.785156 8.449219 54.636719 Z M 8.449219 54.636719 "/>
<path style=" stroke:none;fill-rule:nonzero;fill:rgb(9.411765%,12.941176%,15.686275%);fill-opacity:1;" d="M 11.410156 54.636719 L 11.410156 49.761719 C 11.410156 49.605469 11.5 49.515625 11.65625 49.515625 L 14.746094 49.515625 C 14.890625 49.515625 14.980469 49.597656 14.980469 49.746094 L 14.980469 49.867188 C 14.980469 50.015625 14.890625 50.101562 14.746094 50.101562 L 12.074219 50.101562 L 12.074219 51.882812 L 14.144531 51.882812 C 14.292969 51.882812 14.390625 51.96875 14.390625 52.117188 L 14.390625 52.230469 C 14.390625 52.390625 14.292969 52.464844 14.144531 52.464844 L 12.074219 52.464844 L 12.074219 54.296875 L 14.746094 54.296875 C 14.890625 54.296875 14.988281 54.378906 14.988281 54.527344 L 14.988281 54.652344 C 14.988281 54.800781 14.890625 54.882812 14.746094 54.882812 L 11.65625 54.882812 C 11.5 54.886719 11.410156 54.785156 11.410156 54.636719 Z M 11.410156 54.636719 "/>
<path style=" stroke:none;fill-rule:nonzero;fill:rgb(9.411765%,12.941176%,15.686275%);fill-opacity:1;" d="M 19.539062 54.636719 C 19.621094 54.796875 19.550781 54.886719 19.425781 54.886719 L 19.132812 54.886719 C 18.976562 54.886719 18.941406 54.835938 18.859375 54.695312 L 17.722656 52.636719 L 16.371094 52.636719 L 16.371094 54.636719 C 16.371094 54.785156 16.289062 54.882812 16.144531 54.882812 L 15.9375 54.882812 C 15.792969 54.882812 15.710938 54.785156 15.710938 54.636719 L 15.710938 49.761719 C 15.710938 49.605469 15.800781 49.511719 15.957031 49.511719 L 17.742188 49.511719 C 18.976562 49.511719 19.632812 50.101562 19.632812 51.082031 C 19.632812 51.867188 19.195312 52.390625 18.402344 52.570312 Z M 16.375 52.082031 L 17.878906 52.082031 C 18.558594 52.082031 18.953125 51.660156 18.953125 51.089844 C 18.953125 50.511719 18.558594 50.101562 17.878906 50.101562 L 16.375 50.101562 Z M 16.375 52.082031 "/>
<path style=" stroke:none;fill-rule:nonzero;fill:rgb(9.411765%,12.941176%,15.686275%);fill-opacity:1;" d="M 24.699219 49.746094 L 22.480469 54.730469 C 22.414062 54.878906 22.359375 54.929688 22.261719 54.929688 L 22.21875 54.929688 C 22.113281 54.929688 22.066406 54.871094 22 54.730469 L 19.78125 49.746094 C 19.726562 49.621094 19.808594 49.515625 19.9375 49.515625 L 20.222656 49.515625 C 20.371094 49.515625 20.453125 49.589844 20.515625 49.746094 L 22.242188 53.761719 L 23.976562 49.746094 C 24.042969 49.589844 24.125 49.515625 24.273438 49.515625 L 24.542969 49.515625 C 24.671875 49.515625 24.746094 49.621094 24.699219 49.746094 Z M 24.699219 49.746094 "/>
<path style=" stroke:none;fill-rule:nonzero;fill:rgb(9.411765%,12.941176%,15.686275%);fill-opacity:1;" d="M 25.3125 54.636719 L 25.3125 49.761719 C 25.3125 49.605469 25.394531 49.515625 25.542969 49.515625 L 25.746094 49.515625 C 25.894531 49.515625 25.976562 49.605469 25.976562 49.761719 L 25.976562 54.636719 C 25.976562 54.785156 25.894531 54.886719 25.746094 54.886719 L 25.542969 54.886719 C 25.394531 54.886719 25.3125 54.785156 25.3125 54.636719 Z M 25.3125 54.636719 "/>
<path style=" stroke:none;fill-rule:nonzero;fill:rgb(9.411765%,12.941176%,15.686275%);fill-opacity:1;" d="M 27.140625 54.636719 L 27.140625 49.761719 C 27.140625 49.605469 27.230469 49.515625 27.382812 49.515625 L 30.472656 49.515625 C 30.617188 49.515625 30.707031 49.597656 30.707031 49.746094 L 30.707031 49.867188 C 30.707031 50.015625 30.617188 50.101562 30.472656 50.101562 L 27.800781 50.101562 L 27.800781 51.882812 L 29.871094 51.882812 C 30.019531 51.882812 30.117188 51.96875 30.117188 52.117188 L 30.117188 52.230469 C 30.117188 52.390625 30.019531 52.464844 29.871094 52.464844 L 27.800781 52.464844 L 27.800781 54.296875 L 30.472656 54.296875 C 30.617188 54.296875 30.71875 54.378906 30.71875 54.527344 L 30.71875 54.652344 C 30.71875 54.800781 30.617188 54.882812 30.472656 54.882812 L 27.382812 54.882812 C 27.230469 54.886719 27.140625 54.785156 27.140625 54.636719 Z M 27.140625 54.636719 "/>
<path style=" stroke:none;fill-rule:nonzero;fill:rgb(9.411765%,12.941176%,15.686275%);fill-opacity:1;" d="M 38.125 49.746094 L 36.316406 54.730469 C 36.265625 54.878906 36.207031 54.929688 36.105469 54.929688 L 36.078125 54.929688 C 35.980469 54.929688 35.914062 54.878906 35.867188 54.730469 L 34.5 50.804688 L 33.164062 54.730469 C 33.109375 54.878906 33.050781 54.929688 32.945312 54.929688 L 32.929688 54.929688 C 32.820312 54.929688 32.765625 54.878906 32.707031 54.730469 L 30.90625 49.746094 C 30.855469 49.621094 30.929688 49.515625 31.0625 49.515625 L 31.339844 49.515625 C 31.488281 49.515625 31.59375 49.589844 31.644531 49.746094 L 32.953125 53.605469 L 34.285156 49.667969 C 34.34375 49.519531 34.394531 49.472656 34.5 49.472656 L 34.53125 49.472656 C 34.640625 49.472656 34.695312 49.519531 34.746094 49.667969 L 36.113281 53.636719 L 37.453125 49.742188 C 37.511719 49.585938 37.617188 49.511719 37.765625 49.511719 L 37.96875 49.511719 C 38.097656 49.515625 38.167969 49.613281 38.125 49.746094 Z M 38.125 49.746094 "/>
<path style=" stroke:none;fill-rule:nonzero;fill:rgb(9.411765%,12.941176%,15.686275%);fill-opacity:1;" d="M 40.21875 54.636719 L 40.21875 49.761719 C 40.21875 49.605469 40.300781 49.515625 40.449219 49.515625 L 40.652344 49.515625 C 40.800781 49.515625 40.882812 49.605469 40.882812 49.761719 L 40.882812 51.886719 L 43.886719 51.886719 L 43.886719 49.761719 C 43.886719 49.605469 43.96875 49.515625 44.117188 49.515625 L 44.328125 49.515625 C 44.476562 49.515625 44.546875 49.605469 44.546875 49.761719 L 44.546875 54.636719 C 44.546875 54.785156 44.476562 54.886719 44.328125 54.886719 L 44.117188 54.886719 C 43.96875 54.886719 43.886719 54.785156 43.886719 54.636719 L 43.886719 52.472656 L 40.882812 52.472656 L 40.882812 54.636719 C 40.882812 54.785156 40.800781 54.886719 40.652344 54.886719 L 40.449219 54.886719 C 40.300781 54.886719 40.21875 54.785156 40.21875 54.636719 Z M 40.21875 54.636719 "/>
<path style=" stroke:none;fill-rule:nonzero;fill:rgb(9.411765%,12.941176%,15.686275%);fill-opacity:1;" d="M 45.714844 54.636719 L 45.714844 49.761719 C 45.714844 49.605469 45.804688 49.515625 45.960938 49.515625 L 49.046875 49.515625 C 49.191406 49.515625 49.285156 49.597656 49.285156 49.746094 L 49.285156 49.867188 C 49.285156 50.015625 49.191406 50.101562 49.046875 50.101562 L 46.378906 50.101562 L 46.378906 51.882812 L 48.449219 51.882812 C 48.59375 51.882812 48.695312 51.96875 48.695312 52.117188 L 48.695312 52.230469 C 48.695312 52.390625 48.59375 52.464844 48.449219 52.464844 L 46.378906 52.464844 L 46.378906 54.296875 L 49.046875 54.296875 C 49.191406 54.296875 49.292969 54.378906 49.292969 54.527344 L 49.292969 54.652344 C 49.292969 54.800781 49.191406 54.882812 49.046875 54.882812 L 45.960938 54.882812 C 45.804688 54.886719 45.714844 54.785156 45.714844 54.636719 Z M 45.714844 54.636719 "/>
<path style=" stroke:none;fill-rule:nonzero;fill:rgb(9.411765%,12.941176%,15.686275%);fill-opacity:1;" d="M 53.84375 54.636719 C 53.925781 54.796875 53.851562 54.886719 53.726562 54.886719 L 53.433594 54.886719 C 53.277344 54.886719 53.246094 54.835938 53.164062 54.695312 L 52.023438 52.636719 L 50.675781 52.636719 L 50.675781 54.636719 C 50.675781 54.785156 50.59375 54.882812 50.445312 54.882812 L 50.242188 54.882812 C 50.09375 54.882812 50.011719 54.785156 50.011719 54.636719 L 50.011719 49.761719 C 50.011719 49.605469 50.101562 49.511719 50.257812 49.511719 L 52.042969 49.511719 C 53.28125 49.511719 53.933594 50.101562 53.933594 51.082031 C 53.933594 51.867188 53.5 52.390625 52.703125 52.570312 Z M 50.675781 52.082031 L 52.179688 52.082031 C 52.863281 52.082031 53.253906 51.660156 53.253906 51.089844 C 53.253906 50.511719 52.863281 50.101562 52.179688 50.101562 L 50.675781 50.101562 Z M 50.675781 52.082031 "/>
<path style=" stroke:none;fill-rule:nonzero;fill:rgb(9.411765%,12.941176%,15.686275%);fill-opacity:1;" d="M 54.359375 52.199219 C 54.359375 50.605469 55.578125 49.414062 57.175781 49.414062 C 58.773438 49.414062 60 50.605469 60 52.199219 C 60 53.796875 58.773438 54.984375 57.175781 54.984375 C 55.578125 54.984375 54.359375 53.792969 54.359375 52.199219 Z M 59.328125 52.199219 C 59.328125 50.9375 58.394531 50.027344 57.175781 50.027344 C 55.964844 50.027344 55.03125 50.9375 55.03125 52.199219 C 55.03125 53.464844 55.964844 54.375 57.175781 54.375 C 58.394531 54.375 59.328125 53.464844 59.328125 52.199219 Z M 59.328125 52.199219 "/>
</g>
</defs>
<g id="surface1">
<path style=" stroke:none;fill-rule:evenodd;fill:rgb(0.784314%,48.627451%,54.117647%);fill-opacity:1;" d="M 39.675781 2.757812 C 39.675781 2.757812 40.265625 4.554688 40.296875 5.554688 C 40.296875 5.554688 41.441406 7.304688 40.808594 8.554688 C 40.171875 9.792969 37.554688 10.132812 36.289062 9.804688 C 36.289062 9.804688 36.78125 10.242188 37.957031 10.449219 C 37.957031 10.449219 38.019531 11.027344 38.050781 11.132812 C 38.085938 11.230469 42.648438 11.273438 43.453125 11.617188 C 44.242188 11.945312 47.398438 17.757812 47.183594 18.789062 C 46.984375 19.820312 42.679688 23.242188 42.679688 23.242188 C 41.269531 29.710938 38.703125 36.832031 34.679688 42.253906 C 32.1875 45.597656 31.550781 43.300781 31.816406 39.863281 C 31.847656 39.488281 32.757812 39.066406 32.757812 39.066406 C 32.757812 39.066406 33.175781 31.367188 32.699219 26.179688 C 32.699219 26.179688 28.441406 22.492188 26.398438 22.039062 C 24.960938 21.710938 26.351562 17.804688 27.558594 15.242188 C 25.394531 17.257812 23.984375 23.257812 25.394531 23.226562 C 26.804688 23.195312 31.738281 26.382812 31.847656 27.207031 C 31.941406 27.878906 31.894531 32.628906 31.878906 34.535156 C 25.488281 34.347656 23.832031 29.660156 20.226562 29.660156 C 18.042969 29.660156 16.589844 30.617188 15.707031 31.445312 C 15.738281 26.570312 18.816406 22.570312 18.816406 22.570312 C 13.972656 27.507812 14.699219 32.695312 14.699219 32.695312 C 4.765625 27.476562 26.449219 14.335938 27.949219 12.867188 C 29.109375 11.742188 30.394531 11.273438 30.316406 11.382812 C 30.242188 11.476562 29.992188 11.898438 29.992188 11.898438 C 30.890625 10.960938 33.785156 10.558594 33.785156 10.558594 C 33.847656 9.917969 33.925781 9.058594 33.910156 8.667969 C 33.863281 7.792969 32.765625 3.183594 33.894531 3.042969 C 33.894531 3.042969 33.738281 2.136719 34.851562 1.714844 C 35.96875 1.308594 38.921875 0.777344 39.605469 0.121094 C 40.296875 -0.550781 40.542969 2.261719 39.675781 2.757812 Z M 31.148438 17.132812 C 30.933594 17.148438 29.773438 19.242188 29.804688 19.507812 C 29.835938 19.757812 31.863281 21.773438 32.464844 22.351562 C 32.464844 22.351562 32.308594 19.992188 32.234375 18.757812 C 32.203125 18.101562 31.785156 17.382812 31.148438 17.132812 Z M 43.050781 20.382812 C 43.730469 19.867188 44.429688 18.835938 44.492188 18.476562 C 44.550781 18.117188 43.75 16.804688 43.296875 16.445312 C 43.25 17.695312 43.160156 19.320312 43.050781 20.382812 Z M 43.050781 20.382812 "/>
<use xlink:href="#surface6"/>
</g>
</svg>
