<?xml version="1.0" encoding="UTF-8"?>
<svg xmlns="http://www.w3.org/2000/svg" xmlns:xlink="http://www.w3.org/1999/xlink" width="39pt" height="36pt" viewBox="0 0 39 36" version="1.1">
<defs>
<clipPath id="clip1">
  <rect x="0" y="0" width="39" height="36"/>
</clipPath>
<g id="surface5" clip-path="url(#clip1)">
<path style=" stroke:none;fill-rule:nonzero;fill:rgb(9.411765%,12.941176%,15.686275%);fill-opacity:1;" d="M 0 35.761719 L 0 32.570312 C 0 32.46875 0.0546875 32.410156 0.148438 32.410156 L 0.28125 32.410156 C 0.378906 32.410156 0.429688 32.46875 0.429688 32.570312 L 0.429688 35.761719 C 0.429688 35.859375 0.378906 35.925781 0.28125 35.925781 L 0.148438 35.925781 C 0.0546875 35.925781 0 35.859375 0 35.761719 Z M 0 35.761719 "/>
<path style=" stroke:none;fill-rule:nonzero;fill:rgb(9.411765%,12.941176%,15.686275%);fill-opacity:1;" d="M 4 32.570312 L 4 35.839844 C 4 35.910156 3.949219 35.953125 3.890625 35.953125 L 3.867188 35.953125 C 3.808594 35.953125 3.753906 35.902344 3.691406 35.828125 L 1.605469 33.273438 L 1.605469 35.761719 C 1.605469 35.859375 1.550781 35.925781 1.457031 35.925781 L 1.335938 35.925781 C 1.238281 35.925781 1.183594 35.859375 1.183594 35.761719 L 1.183594 32.496094 C 1.183594 32.425781 1.238281 32.382812 1.296875 32.382812 L 1.320312 32.382812 C 1.378906 32.382812 1.4375 32.429688 1.496094 32.507812 L 3.582031 35.058594 L 3.582031 32.570312 C 3.582031 32.46875 3.632812 32.410156 3.730469 32.410156 L 3.851562 32.410156 C 3.953125 32.410156 4 32.46875 4 32.570312 Z M 4 32.570312 "/>
<path style=" stroke:none;fill-rule:nonzero;fill:rgb(9.411765%,12.941176%,15.686275%);fill-opacity:1;" d="M 5.492188 35.761719 L 5.492188 32.792969 L 4.507812 32.792969 C 4.410156 32.792969 4.351562 32.738281 4.351562 32.640625 L 4.351562 32.5625 C 4.351562 32.464844 4.410156 32.410156 4.507812 32.410156 L 6.90625 32.410156 C 7.007812 32.410156 7.066406 32.464844 7.066406 32.5625 L 7.066406 32.640625 C 7.066406 32.738281 7.007812 32.792969 6.90625 32.792969 L 5.921875 32.792969 L 5.921875 35.761719 C 5.921875 35.859375 5.875 35.925781 5.78125 35.925781 L 5.640625 35.925781 C 5.542969 35.925781 5.492188 35.859375 5.492188 35.761719 Z M 5.492188 35.761719 "/>
<path style=" stroke:none;fill-rule:nonzero;fill:rgb(9.411765%,12.941176%,15.686275%);fill-opacity:1;" d="M 7.417969 35.761719 L 7.417969 32.570312 C 7.417969 32.46875 7.476562 32.410156 7.578125 32.410156 L 9.582031 32.410156 C 9.679688 32.410156 9.738281 32.464844 9.738281 32.5625 L 9.738281 32.640625 C 9.738281 32.738281 9.679688 32.792969 9.582031 32.792969 L 7.847656 32.792969 L 7.847656 33.960938 L 9.195312 33.960938 C 9.289062 33.960938 9.355469 34.015625 9.355469 34.113281 L 9.355469 34.1875 C 9.355469 34.292969 9.289062 34.339844 9.195312 34.339844 L 7.847656 34.339844 L 7.847656 35.539062 L 9.582031 35.539062 C 9.679688 35.539062 9.742188 35.59375 9.742188 35.691406 L 9.742188 35.773438 C 9.742188 35.871094 9.679688 35.925781 9.582031 35.925781 L 7.578125 35.925781 C 7.476562 35.925781 7.417969 35.859375 7.417969 35.761719 Z M 7.417969 35.761719 "/>
<path style=" stroke:none;fill-rule:nonzero;fill:rgb(9.411765%,12.941176%,15.686275%);fill-opacity:1;" d="M 12.703125 35.761719 C 12.753906 35.867188 12.707031 35.925781 12.625 35.925781 L 12.433594 35.925781 C 12.335938 35.925781 12.3125 35.894531 12.257812 35.800781 L 11.519531 34.453125 L 10.640625 34.453125 L 10.640625 35.761719 C 10.640625 35.859375 10.589844 35.925781 10.492188 35.925781 L 10.359375 35.925781 C 10.265625 35.925781 10.210938 35.859375 10.210938 35.761719 L 10.210938 32.570312 C 10.210938 32.46875 10.269531 32.410156 10.371094 32.410156 L 11.53125 32.410156 C 12.335938 32.410156 12.761719 32.792969 12.761719 33.4375 C 12.761719 33.949219 12.476562 34.292969 11.960938 34.410156 Z M 10.644531 34.089844 L 11.621094 34.089844 C 12.0625 34.089844 12.320312 33.816406 12.320312 33.441406 C 12.320312 33.0625 12.0625 32.792969 11.621094 32.792969 L 10.644531 32.792969 Z M 10.644531 34.089844 "/>
<path style=" stroke:none;fill-rule:nonzero;fill:rgb(9.411765%,12.941176%,15.686275%);fill-opacity:1;" d="M 16.054688 32.5625 L 14.613281 35.824219 C 14.570312 35.921875 14.535156 35.953125 14.46875 35.953125 L 14.441406 35.953125 C 14.375 35.953125 14.34375 35.914062 14.300781 35.824219 L 12.859375 32.5625 C 12.820312 32.480469 12.875 32.410156 12.960938 32.410156 L 13.144531 32.410156 C 13.242188 32.410156 13.292969 32.457031 13.335938 32.5625 L 14.457031 35.1875 L 15.585938 32.5625 C 15.628906 32.457031 15.679688 32.410156 15.777344 32.410156 L 15.953125 32.410156 C 16.039062 32.410156 16.085938 32.480469 16.054688 32.5625 Z M 16.054688 32.5625 "/>
<path style=" stroke:none;fill-rule:nonzero;fill:rgb(9.411765%,12.941176%,15.686275%);fill-opacity:1;" d="M 16.453125 35.761719 L 16.453125 32.570312 C 16.453125 32.46875 16.507812 32.410156 16.601562 32.410156 L 16.734375 32.410156 C 16.832031 32.410156 16.882812 32.46875 16.882812 32.570312 L 16.882812 35.761719 C 16.882812 35.859375 16.832031 35.925781 16.734375 35.925781 L 16.601562 35.925781 C 16.507812 35.925781 16.453125 35.859375 16.453125 35.761719 Z M 16.453125 35.761719 "/>
<path style=" stroke:none;fill-rule:nonzero;fill:rgb(9.411765%,12.941176%,15.686275%);fill-opacity:1;" d="M 17.640625 35.761719 L 17.640625 32.570312 C 17.640625 32.46875 17.699219 32.410156 17.800781 32.410156 L 19.804688 32.410156 C 19.902344 32.410156 19.960938 32.464844 19.960938 32.5625 L 19.960938 32.640625 C 19.960938 32.738281 19.902344 32.792969 19.804688 32.792969 L 18.070312 32.792969 L 18.070312 33.960938 L 19.417969 33.960938 C 19.511719 33.960938 19.578125 34.015625 19.578125 34.113281 L 19.578125 34.1875 C 19.578125 34.292969 19.511719 34.339844 19.417969 34.339844 L 18.070312 34.339844 L 18.070312 35.539062 L 19.804688 35.539062 C 19.902344 35.539062 19.964844 35.59375 19.964844 35.691406 L 19.964844 35.773438 C 19.964844 35.871094 19.902344 35.925781 19.804688 35.925781 L 17.800781 35.925781 C 17.699219 35.925781 17.640625 35.859375 17.640625 35.761719 Z M 17.640625 35.761719 "/>
<path style=" stroke:none;fill-rule:nonzero;fill:rgb(9.411765%,12.941176%,15.686275%);fill-opacity:1;" d="M 24.78125 32.5625 L 23.605469 35.824219 C 23.574219 35.921875 23.535156 35.953125 23.46875 35.953125 L 23.449219 35.953125 C 23.386719 35.953125 23.34375 35.921875 23.3125 35.824219 L 22.425781 33.253906 L 21.558594 35.824219 C 21.519531 35.921875 21.484375 35.953125 21.414062 35.953125 L 21.402344 35.953125 C 21.332031 35.953125 21.296875 35.921875 21.261719 35.824219 L 20.089844 32.5625 C 20.058594 32.480469 20.105469 32.410156 20.191406 32.410156 L 20.371094 32.410156 C 20.46875 32.410156 20.535156 32.457031 20.566406 32.5625 L 21.417969 35.085938 L 22.285156 32.511719 C 22.324219 32.414062 22.355469 32.382812 22.425781 32.382812 L 22.445312 32.382812 C 22.515625 32.382812 22.550781 32.414062 22.585938 32.511719 L 23.472656 35.105469 L 24.34375 32.558594 C 24.382812 32.457031 24.453125 32.410156 24.546875 32.410156 L 24.679688 32.410156 C 24.765625 32.410156 24.808594 32.472656 24.78125 32.5625 Z M 24.78125 32.5625 "/>
<path style=" stroke:none;fill-rule:nonzero;fill:rgb(9.411765%,12.941176%,15.686275%);fill-opacity:1;" d="M 26.144531 35.761719 L 26.144531 32.570312 C 26.144531 32.46875 26.195312 32.410156 26.292969 32.410156 L 26.425781 32.410156 C 26.519531 32.410156 26.574219 32.46875 26.574219 32.570312 L 26.574219 33.960938 L 28.527344 33.960938 L 28.527344 32.570312 C 28.527344 32.46875 28.578125 32.410156 28.675781 32.410156 L 28.8125 32.410156 C 28.910156 32.410156 28.957031 32.46875 28.957031 32.570312 L 28.957031 35.761719 C 28.957031 35.859375 28.910156 35.925781 28.8125 35.925781 L 28.675781 35.925781 C 28.578125 35.925781 28.527344 35.859375 28.527344 35.761719 L 28.527344 34.347656 L 26.574219 34.347656 L 26.574219 35.761719 C 26.574219 35.859375 26.519531 35.925781 26.425781 35.925781 L 26.292969 35.925781 C 26.195312 35.925781 26.144531 35.859375 26.144531 35.761719 Z M 26.144531 35.761719 "/>
<path style=" stroke:none;fill-rule:nonzero;fill:rgb(9.411765%,12.941176%,15.686275%);fill-opacity:1;" d="M 29.714844 35.761719 L 29.714844 32.570312 C 29.714844 32.46875 29.773438 32.410156 29.875 32.410156 L 31.878906 32.410156 C 31.976562 32.410156 32.035156 32.464844 32.035156 32.5625 L 32.035156 32.640625 C 32.035156 32.738281 31.976562 32.792969 31.878906 32.792969 L 30.144531 32.792969 L 30.144531 33.960938 L 31.492188 33.960938 C 31.585938 33.960938 31.652344 34.015625 31.652344 34.113281 L 31.652344 34.1875 C 31.652344 34.292969 31.585938 34.339844 31.492188 34.339844 L 30.144531 34.339844 L 30.144531 35.539062 L 31.878906 35.539062 C 31.976562 35.539062 32.039062 35.59375 32.039062 35.691406 L 32.039062 35.773438 C 32.039062 35.871094 31.976562 35.925781 31.878906 35.925781 L 29.875 35.925781 C 29.773438 35.925781 29.714844 35.859375 29.714844 35.761719 Z M 29.714844 35.761719 "/>
<path style=" stroke:none;fill-rule:nonzero;fill:rgb(9.411765%,12.941176%,15.686275%);fill-opacity:1;" d="M 34.996094 35.761719 C 35.050781 35.867188 35.003906 35.925781 34.921875 35.925781 L 34.730469 35.925781 C 34.628906 35.925781 34.609375 35.894531 34.554688 35.800781 L 33.816406 34.453125 L 32.9375 34.453125 L 32.9375 35.761719 C 32.9375 35.859375 32.886719 35.925781 32.789062 35.925781 L 32.65625 35.925781 C 32.5625 35.925781 32.507812 35.859375 32.507812 35.761719 L 32.507812 32.570312 C 32.507812 32.46875 32.566406 32.410156 32.667969 32.410156 L 33.828125 32.410156 C 34.632812 32.410156 35.054688 32.792969 35.054688 33.4375 C 35.054688 33.949219 34.773438 34.292969 34.257812 34.410156 Z M 32.9375 34.089844 L 33.917969 34.089844 C 34.359375 34.089844 34.617188 33.816406 34.617188 33.441406 C 34.617188 33.0625 34.359375 32.792969 33.917969 32.792969 L 32.9375 32.792969 Z M 32.9375 34.089844 "/>
<path style=" stroke:none;fill-rule:nonzero;fill:rgb(9.411765%,12.941176%,15.686275%);fill-opacity:1;" d="M 35.332031 34.167969 C 35.332031 33.125 36.125 32.34375 37.164062 32.34375 C 38.203125 32.34375 39 33.121094 39 34.167969 C 39 35.210938 38.203125 35.992188 37.164062 35.992188 C 36.125 35.988281 35.332031 35.210938 35.332031 34.167969 Z M 38.5625 34.167969 C 38.5625 33.339844 37.957031 32.746094 37.164062 32.746094 C 36.375 32.746094 35.769531 33.339844 35.769531 34.167969 C 35.769531 34.996094 36.375 35.589844 37.164062 35.589844 C 37.957031 35.589844 38.5625 34.996094 38.5625 34.167969 Z M 38.5625 34.167969 "/>
</g>
</defs>
<g id="surface1">
<path style=" stroke:none;fill-rule:evenodd;fill:rgb(9.411765%,12.941176%,15.686275%);fill-opacity:1;" d="M 25.789062 1.804688 C 25.789062 1.804688 26.171875 2.980469 26.191406 3.636719 C 26.191406 3.636719 26.9375 4.78125 26.523438 5.601562 C 26.113281 6.410156 24.410156 6.632812 23.585938 6.417969 C 23.585938 6.417969 23.910156 6.703125 24.671875 6.839844 C 24.671875 6.839844 24.714844 7.21875 24.734375 7.289062 C 24.753906 7.351562 27.722656 7.378906 28.246094 7.605469 C 28.757812 7.820312 30.808594 11.625 30.667969 12.296875 C 30.539062 12.972656 27.742188 15.210938 27.742188 15.210938 C 26.828125 19.445312 25.15625 24.109375 22.539062 27.65625 C 20.921875 29.847656 20.507812 28.34375 20.679688 26.09375 C 20.699219 25.847656 21.292969 25.570312 21.292969 25.570312 C 21.292969 25.570312 21.566406 20.53125 21.253906 17.136719 C 21.253906 17.136719 18.488281 14.722656 17.160156 14.425781 C 16.222656 14.210938 17.128906 11.652344 17.914062 9.976562 C 16.507812 11.296875 15.589844 15.222656 16.507812 15.203125 C 17.421875 15.179688 20.632812 17.269531 20.703125 17.808594 C 20.761719 18.25 20.730469 21.359375 20.722656 22.605469 C 16.566406 22.484375 15.492188 19.414062 13.148438 19.414062 C 11.726562 19.414062 10.78125 20.039062 10.210938 20.582031 C 10.230469 17.390625 12.230469 14.773438 12.230469 14.773438 C 9.082031 18.003906 9.554688 21.398438 9.554688 21.398438 C 3.097656 17.984375 17.191406 9.382812 18.167969 8.421875 C 18.921875 7.6875 19.757812 7.378906 19.707031 7.453125 C 19.65625 7.511719 19.496094 7.789062 19.496094 7.789062 C 20.078125 7.175781 21.960938 6.910156 21.960938 6.910156 C 22 6.492188 22.050781 5.929688 22.039062 5.671875 C 22.011719 5.101562 21.296875 2.085938 22.03125 1.992188 C 22.03125 1.992188 21.929688 1.398438 22.65625 1.121094 C 23.378906 0.855469 25.300781 0.507812 25.742188 0.078125 C 26.191406 -0.363281 26.355469 1.480469 25.789062 1.804688 Z M 20.246094 11.214844 C 20.105469 11.222656 19.351562 12.59375 19.371094 12.769531 C 19.390625 12.933594 20.710938 14.253906 21.101562 14.628906 C 21.101562 14.628906 21 13.085938 20.953125 12.277344 C 20.933594 11.847656 20.660156 11.378906 20.246094 11.214844 Z M 27.984375 13.339844 C 28.425781 13.003906 28.878906 12.328125 28.917969 12.09375 C 28.957031 11.859375 28.4375 11 28.144531 10.765625 C 28.113281 11.582031 28.054688 12.644531 27.984375 13.339844 Z M 27.984375 13.339844 "/>
<use xlink:href="#surface5"/>
</g>
</svg>
