<?xml version="1.0" encoding="UTF-8"?>
<svg xmlns="http://www.w3.org/2000/svg" xmlns:xlink="http://www.w3.org/1999/xlink" width="50pt" height="61pt" viewBox="0 0 50 61" version="1.1">
<g id="surface1">
<path style=" stroke:none;fill-rule:evenodd;fill:rgb(9.411765%,12.941176%,15.686275%);fill-opacity:1;" d="M 39.285156 3.8125 C 39.285156 3.8125 40.125 6.3125 40.167969 7.703125 C 40.167969 7.703125 41.796875 10.136719 40.894531 11.875 C 39.988281 13.59375 36.265625 14.066406 34.457031 13.613281 C 34.457031 13.613281 35.160156 14.222656 36.839844 14.503906 C 36.839844 14.503906 36.925781 15.308594 36.972656 15.460938 C 37.015625 15.589844 43.519531 15.652344 44.664062 16.132812 C 45.789062 16.585938 50.285156 24.667969 49.980469 26.101562 C 49.695312 27.535156 43.5625 32.292969 43.5625 32.292969 C 41.554688 41.289062 37.898438 51.191406 32.164062 58.730469 C 28.613281 63.382812 27.710938 60.1875 28.085938 55.40625 C 28.132812 54.886719 29.429688 54.300781 29.429688 54.300781 C 29.429688 54.300781 30.027344 43.589844 29.34375 36.378906 C 29.34375 36.378906 23.28125 31.25 20.371094 30.621094 C 18.320312 30.164062 20.304688 24.734375 22.023438 21.171875 C 18.941406 23.976562 16.933594 32.316406 18.941406 32.273438 C 20.945312 32.226562 27.980469 36.660156 28.132812 37.8125 C 28.265625 38.746094 28.199219 45.347656 28.179688 48 C 19.074219 47.738281 16.714844 41.222656 11.578125 41.222656 C 8.46875 41.222656 6.398438 42.546875 5.140625 43.699219 C 5.1875 36.921875 9.570312 31.359375 9.570312 31.359375 C 2.671875 38.222656 3.707031 45.4375 3.707031 45.4375 C -10.449219 38.179688 20.4375 19.910156 22.574219 17.867188 C 24.230469 16.304688 26.058594 15.652344 25.949219 15.804688 C 25.839844 15.9375 25.488281 16.523438 25.488281 16.523438 C 26.765625 15.21875 30.886719 14.65625 30.886719 14.65625 C 30.976562 13.761719 31.085938 12.570312 31.066406 12.027344 C 31 10.808594 29.433594 4.402344 31.042969 4.207031 C 31.042969 4.207031 30.820312 2.945312 32.410156 2.359375 C 33.996094 1.792969 38.207031 1.054688 39.179688 0.144531 C 40.167969 -0.789062 40.519531 3.121094 39.285156 3.8125 Z M 27.140625 23.800781 C 26.828125 23.824219 25.175781 26.734375 25.21875 27.105469 C 25.265625 27.453125 28.152344 30.253906 29.011719 31.058594 C 29.011719 31.058594 28.792969 27.777344 28.683594 26.058594 C 28.640625 25.148438 28.042969 24.148438 27.140625 23.800781 Z M 44.09375 28.320312 C 45.0625 27.601562 46.054688 26.167969 46.140625 25.667969 C 46.230469 25.167969 45.085938 23.34375 44.445312 22.84375 C 44.378906 24.582031 44.246094 26.839844 44.09375 28.320312 Z M 44.09375 28.320312 "/>
</g>
</svg>
