<?xml version="1.0" encoding="utf-8"?>
<!-- Generator: Adobe Illustrator 23.0.5, SVG Export Plug-In . SVG Version: 6.00 Build 0)  -->
<svg version="1.1" id="Layer_1" xmlns="http://www.w3.org/2000/svg" xmlns:xlink="http://www.w3.org/1999/xlink" x="0px" y="0px"
	 viewBox="0 0 110 93" style="enable-background:new 0 0 110 93;" xml:space="preserve">
<style type="text/css">
	.st0{fill-rule:evenodd;clip-rule:evenodd;fill:#05949B;}
	.st1{fill:#05949B;}
	.st2{font-family:'Goldplay-Medium';}
	.st3{font-size:13.7757px;}
</style>
<g>
	<path class="st0" d="M62.8,4.4c0,0,1,3,1,4.7c0,0,1.9,2.9,0.9,5c-1.1,2.1-5.5,2.6-7.6,2.1c0,0,0.8,0.7,2.8,1.1c0,0,0.1,1,0.2,1.2
		c0.1,0.2,7.7,0.2,9.1,0.8c1.3,0.5,6.6,10.2,6.3,12c-0.3,1.7-7.6,7.4-7.6,7.4c-2.4,10.8-6.7,22.7-13.5,31.7c-4.2,5.6-5.3,1.7-4.8-4
		c0.1-0.6,1.6-1.3,1.6-1.3s0.7-12.8-0.1-21.5c0,0-7.2-6.2-10.6-6.9c-2.4-0.5-0.1-7.1,1.9-11.3c-3.7,3.4-6,13.4-3.7,13.3
		c2.4,0,10.7,5.3,10.9,6.6c0.2,1.1,0.1,9,0.1,12.2c-10.8-0.3-13.5-8.1-19.6-8.1c-3.7,0-6.1,1.6-7.6,3c0.1-8.1,5.2-14.8,5.2-14.8
		c-8.2,8.2-6.9,16.9-6.9,16.9c-16.7-8.7,19.8-30.6,22.3-33c1.9-1.9,4.1-2.7,4-2.5s-0.6,0.9-0.6,0.9c1.5-1.6,6.4-2.2,6.4-2.2
		c0.1-1.1,0.2-2.5,0.2-3.2c-0.1-1.5-1.9-9.1,0-9.4c0,0-0.3-1.5,1.6-2.2s6.9-1.6,8-2.7C63.8-1.1,64.3,3.5,62.8,4.4L62.8,4.4z
		 M48.4,28.3c-0.4,0-2.3,3.5-2.3,4c0.1,0.4,3.5,3.8,4.5,4.7c0,0-0.3-3.9-0.4-6C50.2,29.9,49.5,28.8,48.4,28.3L48.4,28.3z M68.5,33.8
		c1.1-0.9,2.3-2.6,2.4-3.2s-1.2-2.8-2-3.4C68.8,29.3,68.7,32,68.5,33.8L68.5,33.8z"/>
	<text transform="matrix(1 0 0 1 -2.441406e-04 89.603)" class="st1 st2 st3">INTERVIEW HERO</text>
</g>
</svg>
