<?xml version="1.0" encoding="utf-8"?>
<!-- Generator: Adobe Illustrator 23.0.5, SVG Export Plug-In . SVG Version: 6.00 Build 0)  -->
<svg version="1.1" id="Layer_1" xmlns="http://www.w3.org/2000/svg" xmlns:xlink="http://www.w3.org/1999/xlink" x="0px" y="0px"
	 viewBox="0 0 359 325.81" style="enable-background:new 0 0 359 325.81;" xml:space="preserve">
<style type="text/css">
	.st0{fill-rule:evenodd;clip-rule:evenodd;fill:#FFFFFF;}
	.st1{fill-rule:evenodd;clip-rule:evenodd;fill:#05949B;}
	.st2{fill:#182128;}
	.st3{font-family:'CasanovaScotia';}
	.st4{font-size:38.4773px;}
	.st5{fill-rule:evenodd;clip-rule:evenodd;fill:#182128;}
</style>
<g>
	<text transform="matrix(1 0 0 1 2 322.4563)" class="st2 st3 st4">INTERVIEW HERO</text>
</g>
<path class="st5" d="M250.7,114.84c1.27-5.96-17.15-39.55-21.76-41.44c-3.01-1.28-15.1-1.85-23.39-2.23
	c-4.62-0.22-2.79-0.22-2.79-0.22s0.1-1.5,0.33-3.28c-13.05,0.23-15.96-4.74-15.96-4.74c5.51,1.4,15.34,0.66,21.56-2.74
	c2.14-1.17,3.85-2.66,4.81-4.49c0.23-0.46,0.43-0.92,0.56-1.39c0.89-2.64,0.6-5.54-0.09-8.13c-0.3-1.15-0.69-2.25-1.1-3.23
	c-1.11-2.7-2.36-4.59-2.36-4.59c-1.8-4.46-3.6-16.17-3.6-16.17c5.05-2.88,3.6-19.14-0.45-15.26c-3.98,3.79-21.23,6.86-27.72,9.22
	c-6.51,2.43-5.61,7.67-5.61,7.67c-6.6,0.81-0.17,27.46,0.1,32.52c0.09,2.25-0.37,7.21-0.73,10.92c0,0-27.26,6.86-34.03,13.36
	c-8.77,8.49-135.28,84.43-77.3,114.59c0,0-4.24-29.88,23.9-58.38c-1.51,2-17.86,24.27-18.04,51.16c5.16-4.79,13.64-10.3,26.37-10.3
	c16.86,0,28.89,19.75,41.94,25.44c3.23,1.41,15.6-0.99,15.6-0.99s10.63-32.22,10.27-38.63c-0.63-4.78-29.43-23.2-37.65-23.02
	c-8.22,0.18,0-34.49,12.64-46.14c-7.04,14.81-15.18,37.38-6.77,39.27c11.92,2.62,36.75,23.93,36.75,23.93
	c0.89,9.59-14.35,77.2-23.24,100.9l-12.81,4.78l-0.41,2.46h31.42l6.8-19.73l25.97-75.27l6.5,0.74l1.45,24.13l3.98,69.73l1.04,0.4
	h33.51l-0.41-2.46l-12.82-4.78c-0.34-0.9-3.7-109.93-3.7-109.93S249.54,120.8,250.7,114.84z M228.04,101.3
	c1.92,1.52,4.96,6.02,6.31,9.12c0.48,1.12,0.75,2.07,0.64,2.61c-0.07,0.48-0.35,1.14-0.77,1.94c-1.43,2.7-4.55,6.78-7.62,9.08
	C227.23,117.91,227.76,108.52,228.04,101.3z M149.29,118.99c-0.18-1.53,6.6-13.63,7.85-13.71c2.33,0.9,4.15,2.87,5.23,5.14
	c0.65,1.36,1.04,2.82,1.11,4.24c0.14,2.26,0.33,5.18,0.52,8.11c0.41,6.3,0.83,12.66,0.83,12.66
	C161.31,132.09,149.47,120.44,149.29,118.99z"/>
</svg>
