<?xml version="1.0" encoding="utf-8"?>
<!-- Generator: Adobe Illustrator 23.0.5, SVG Export Plug-In . SVG Version: 6.00 Build 0)  -->
<svg version="1.1" id="Layer_1" xmlns="http://www.w3.org/2000/svg" xmlns:xlink="http://www.w3.org/1999/xlink" x="0px" y="0px"
	 viewBox="0 0 713.7 260.03" style="enable-background:new 0 0 713.7 260.03;" xml:space="preserve">
<style type="text/css">
	.st0{fill-rule:evenodd;clip-rule:evenodd;fill:#027C8A;}
	.st1{enable-background:new    ;}
	.st2{fill:#182128;}
	.st3{fill-rule:evenodd;clip-rule:evenodd;fill:#FFFFFF;}
	.st4{fill:#FFFFFF;}
	.st5{fill-rule:evenodd;clip-rule:evenodd;fill:#182128;}
</style>
<path class="st5" d="M164.99,16.26c0,0,3.52,10.65,3.7,16.58c0,0,6.85,10.37,3.06,17.78c-3.8,7.32-19.45,9.35-27.04,7.41
	c0,0,2.96,2.59,10,3.8c0,0,0.37,3.43,0.56,4.07c0.19,0.56,27.5,0.83,32.32,2.87c4.72,1.94,23.61,36.39,22.32,42.5
	c-1.2,6.11-26.95,26.39-26.95,26.39c-8.43,38.34-23.8,80.56-47.88,112.7c-14.91,19.82-18.71,6.2-17.13-14.17
	c0.19-2.22,5.65-4.72,5.65-4.72s2.5-45.65-0.37-76.4c0,0-25.47-21.85-37.69-24.54c-8.61-1.94-0.28-25.1,6.95-40.28
	c-12.96,11.95-21.39,47.51-12.96,47.32c8.43-0.19,37.97,18.71,38.62,23.61c0.56,3.98,0.28,32.13,0.19,43.43
	c-38.24-1.11-48.15-28.89-69.73-28.89c-13.06,0-21.76,5.65-27.04,10.56c0.19-28.89,18.61-52.6,18.61-52.6
	c-28.98,29.26-24.63,60.01-24.63,60.01C-43.92,162.76,85.82,84.88,94.8,76.17c6.95-6.67,14.63-9.45,14.17-8.8
	c-0.46,0.56-1.94,3.06-1.94,3.06c5.37-5.56,22.69-7.96,22.69-7.96c0.37-3.8,0.83-8.89,0.74-11.2c-0.28-5.19-6.85-32.5-0.09-33.34
	c0,0-0.93-5.37,5.74-7.87c6.67-2.41,24.35-5.56,28.43-9.45C168.7-3.37,170.18,13.3,164.99,16.26L164.99,16.26z M113.97,101.46
	c-1.3,0.09-8.24,12.5-8.06,14.08c0.19,1.48,12.32,13.43,15.93,16.85c0,0-0.93-13.98-1.39-21.3
	C120.27,107.2,117.77,102.94,113.97,101.46L113.97,101.46z M185.18,120.72c4.07-3.06,8.24-9.17,8.61-11.3
	c0.37-2.13-4.44-9.91-7.13-12.04C186.38,104.79,185.83,114.42,185.18,120.72L185.18,120.72z"/>
<g id="text50_11_">
	<g class="st1">
		<path class="st2" d="M245,153.3v-37.73c0-1.22,0.64-1.92,1.79-1.92h1.6c1.15,0,1.79,0.7,1.79,1.92v37.73
			c0,1.15-0.64,1.92-1.79,1.92h-1.6C245.64,155.22,245,154.45,245,153.3z"/>
		<path class="st2" d="M293.09,115.57v38.62c0,0.83-0.64,1.34-1.34,1.34h-0.26c-0.7,0-1.34-0.58-2.11-1.47l-25.07-30.18v29.42
			c0,1.15-0.64,1.92-1.79,1.92h-1.47c-1.15,0-1.79-0.77-1.79-1.92v-38.62c0-0.83,0.64-1.34,1.34-1.34h0.26
			c0.7,0,1.41,0.58,2.11,1.47l25.07,30.18v-29.42c0-1.22,0.64-1.92,1.79-1.92h1.47C292.52,113.65,293.09,114.36,293.09,115.57z"/>
		<path class="st2" d="M311,153.3v-35.11h-11.83c-1.15,0-1.85-0.64-1.85-1.79v-0.96c0-1.15,0.7-1.79,1.85-1.79h28.84
			c1.21,0,1.92,0.64,1.92,1.79v0.96c0,1.15-0.7,1.79-1.92,1.79h-11.83v35.11c0,1.15-0.58,1.92-1.73,1.92h-1.66
			C311.64,155.22,311,154.45,311,153.3z"/>
		<path class="st2" d="M334.15,153.3v-37.73c0-1.22,0.7-1.92,1.92-1.92h24.11c1.15,0,1.85,0.64,1.85,1.79v0.96
			c0,1.15-0.7,1.79-1.85,1.79h-20.85v13.81h16.18c1.15,0,1.92,0.64,1.92,1.79v0.9c0,1.21-0.77,1.79-1.92,1.79h-16.18v14.2h20.85
			c1.15,0,1.92,0.64,1.92,1.79v0.96c0,1.15-0.77,1.79-1.92,1.79h-24.11C334.86,155.22,334.15,154.45,334.15,153.3z"/>
		<path class="st2" d="M397.65,153.3c0.64,1.22,0.06,1.92-0.9,1.92h-2.3c-1.21,0-1.47-0.38-2.11-1.47l-8.89-15.92h-10.55v15.48
			c0,1.15-0.64,1.92-1.79,1.92h-1.6c-1.15,0-1.79-0.77-1.79-1.92v-37.73c0-1.22,0.7-1.92,1.92-1.92h13.94
			c9.66,0,14.77,4.54,14.77,12.15c0,6.08-3.39,10.1-9.59,11.51L397.65,153.3z M372.91,133.54h11.77c5.31,0,8.38-3.26,8.38-7.67
			c0-4.48-3.07-7.67-8.38-7.67h-11.77V133.54z"/>
		<path class="st2" d="M437.94,115.44l-17.33,38.56c-0.51,1.15-0.96,1.53-1.73,1.53h-0.32c-0.83,0-1.22-0.45-1.73-1.53l-17.33-38.56
			c-0.45-0.96,0.19-1.79,1.22-1.79h2.24c1.15,0,1.79,0.58,2.3,1.79l13.49,31.08l13.56-31.08c0.51-1.21,1.15-1.79,2.3-1.79h2.11
			C437.75,113.65,438.33,114.48,437.94,115.44z"/>
		<path class="st2" d="M442.74,153.3v-37.73c0-1.22,0.64-1.92,1.79-1.92h1.6c1.15,0,1.79,0.7,1.79,1.92v37.73
			c0,1.15-0.64,1.92-1.79,1.92h-1.6C443.38,155.22,442.74,154.45,442.74,153.3z"/>
		<path class="st2" d="M457,153.3v-37.73c0-1.22,0.7-1.92,1.92-1.92h24.11c1.15,0,1.85,0.64,1.85,1.79v0.96
			c0,1.15-0.7,1.79-1.85,1.79h-20.85v13.81h16.18c1.15,0,1.92,0.64,1.92,1.79v0.9c0,1.21-0.77,1.79-1.92,1.79h-16.18v14.2h20.85
			c1.15,0,1.92,0.64,1.92,1.79v0.96c0,1.15-0.77,1.79-1.92,1.79h-24.11C457.7,155.22,457,154.45,457,153.3z"/>
		<path class="st2" d="M542.82,115.44l-14.13,38.56c-0.38,1.15-0.83,1.53-1.66,1.53h-0.19c-0.77,0-1.28-0.38-1.66-1.53l-10.68-30.38
			l-10.42,30.38c-0.45,1.15-0.9,1.53-1.73,1.53h-0.13c-0.83,0-1.28-0.38-1.73-1.53l-14.07-38.56c-0.38-0.96,0.19-1.79,1.22-1.79
			h2.17c1.15,0,1.98,0.58,2.37,1.79l10.23,29.86l10.42-30.44c0.45-1.15,0.83-1.53,1.66-1.53h0.26c0.83,0,1.28,0.38,1.66,1.53
			l10.68,30.7l10.49-30.12c0.45-1.21,1.28-1.79,2.43-1.79h1.6C542.63,113.65,543.14,114.42,542.82,115.44z"/>
		<path class="st2" d="M559.2,153.3v-37.73c0-1.22,0.64-1.92,1.79-1.92h1.6c1.15,0,1.79,0.7,1.79,1.92v16.43h23.47v-16.43
			c0-1.22,0.64-1.92,1.79-1.92h1.66c1.15,0,1.73,0.7,1.73,1.92v37.73c0,1.15-0.58,1.92-1.73,1.92h-1.66c-1.15,0-1.79-0.77-1.79-1.92
			v-16.75h-23.47v16.75c0,1.15-0.64,1.92-1.79,1.92h-1.6C559.84,155.22,559.2,154.45,559.2,153.3z"/>
		<path class="st2" d="M602.11,153.3v-37.73c0-1.22,0.7-1.92,1.92-1.92h24.11c1.15,0,1.85,0.64,1.85,1.79v0.96
			c0,1.15-0.7,1.79-1.85,1.79h-20.85v13.81h16.18c1.15,0,1.92,0.64,1.92,1.79v0.9c0,1.21-0.77,1.79-1.92,1.79h-16.18v14.2h20.85
			c1.15,0,1.92,0.64,1.92,1.79v0.96c0,1.15-0.77,1.79-1.92,1.79h-24.11C602.81,155.22,602.11,154.45,602.11,153.3z"/>
		<path class="st2" d="M665.61,153.3c0.64,1.22,0.06,1.92-0.9,1.92h-2.3c-1.21,0-1.47-0.38-2.11-1.47l-8.89-15.92h-10.55v15.48
			c0,1.15-0.64,1.92-1.79,1.92h-1.6c-1.15,0-1.79-0.77-1.79-1.92v-37.73c0-1.22,0.7-1.92,1.92-1.92h13.94
			c9.66,0,14.77,4.54,14.77,12.15c0,6.08-3.39,10.1-9.59,11.51L665.61,153.3z M640.86,133.54h11.77c5.31,0,8.38-3.26,8.38-7.67
			c0-4.48-3.07-7.67-8.38-7.67h-11.77V133.54z"/>
		<path class="st2" d="M669.64,134.44c0-12.34,9.53-21.55,22-21.55s22.06,9.21,22.06,21.55c0,12.34-9.59,21.55-22.06,21.55
			S669.64,146.78,669.64,134.44z M708.46,134.44c0-9.79-7.29-16.82-16.82-16.82c-9.46,0-16.75,7.03-16.75,16.82
			c0,9.78,7.29,16.82,16.75,16.82C701.17,151.26,708.46,144.22,708.46,134.44z"/>
	</g>
</g>
</svg>
