<?xml version="1.0" encoding="UTF-8"?>
<svg xmlns="http://www.w3.org/2000/svg" xmlns:xlink="http://www.w3.org/1999/xlink" width="70pt" height="64pt" viewBox="0 0 70 64" version="1.1">
<defs>
<clipPath id="clip1">
  <rect x="0" y="0" width="70" height="64"/>
</clipPath>
<g id="surface5" clip-path="url(#clip1)">
<path style=" stroke:none;fill-rule:nonzero;fill:rgb(9.411765%,12.941176%,15.686275%);fill-opacity:1;" d="M 0 63.578125 L 0 57.90625 C 0 57.722656 0.09375 57.617188 0.265625 57.617188 L 0.507812 57.617188 C 0.679688 57.617188 0.773438 57.722656 0.773438 57.90625 L 0.773438 63.578125 C 0.773438 63.75 0.679688 63.867188 0.507812 63.867188 L 0.265625 63.867188 C 0.09375 63.867188 0 63.75 0 63.578125 Z M 0 63.578125 "/>
<path style=" stroke:none;fill-rule:nonzero;fill:rgb(9.411765%,12.941176%,15.686275%);fill-opacity:1;" d="M 7.179688 57.90625 L 7.179688 63.710938 C 7.179688 63.839844 7.085938 63.914062 6.980469 63.914062 L 6.941406 63.914062 C 6.835938 63.914062 6.742188 63.828125 6.625 63.691406 L 2.882812 59.152344 L 2.882812 63.578125 C 2.882812 63.75 2.785156 63.867188 2.613281 63.867188 L 2.394531 63.867188 C 2.222656 63.867188 2.128906 63.75 2.128906 63.578125 L 2.128906 57.769531 C 2.128906 57.644531 2.222656 57.566406 2.328125 57.566406 L 2.367188 57.566406 C 2.472656 57.566406 2.578125 57.652344 2.683594 57.789062 L 6.425781 62.328125 L 6.425781 57.90625 C 6.425781 57.722656 6.523438 57.617188 6.695312 57.617188 L 6.914062 57.617188 C 7.09375 57.617188 7.179688 57.722656 7.179688 57.90625 Z M 7.179688 57.90625 "/>
<path style=" stroke:none;fill-rule:nonzero;fill:rgb(9.411765%,12.941176%,15.686275%);fill-opacity:1;" d="M 9.855469 63.578125 L 9.855469 58.300781 L 8.089844 58.300781 C 7.917969 58.300781 7.8125 58.203125 7.8125 58.03125 L 7.8125 57.886719 C 7.8125 57.714844 7.917969 57.617188 8.089844 57.617188 L 12.398438 57.617188 C 12.578125 57.617188 12.683594 57.714844 12.683594 57.886719 L 12.683594 58.03125 C 12.683594 58.203125 12.578125 58.300781 12.398438 58.300781 L 10.628906 58.300781 L 10.628906 63.578125 C 10.628906 63.75 10.542969 63.867188 10.375 63.867188 L 10.125 63.867188 C 9.953125 63.867188 9.855469 63.75 9.855469 63.578125 Z M 9.855469 63.578125 "/>
<path style=" stroke:none;fill-rule:nonzero;fill:rgb(9.411765%,12.941176%,15.686275%);fill-opacity:1;" d="M 13.3125 63.578125 L 13.3125 57.90625 C 13.3125 57.722656 13.417969 57.617188 13.601562 57.617188 L 17.203125 57.617188 C 17.375 57.617188 17.480469 57.710938 17.480469 57.886719 L 17.480469 58.027344 C 17.480469 58.203125 17.375 58.296875 17.203125 58.296875 L 14.085938 58.296875 L 14.085938 60.375 L 16.503906 60.375 C 16.675781 60.375 16.789062 60.472656 16.789062 60.644531 L 16.789062 60.78125 C 16.789062 60.960938 16.675781 61.046875 16.503906 61.046875 L 14.085938 61.046875 L 14.085938 63.183594 L 17.203125 63.183594 C 17.375 63.183594 17.488281 63.277344 17.488281 63.453125 L 17.488281 63.597656 C 17.488281 63.769531 17.375 63.867188 17.203125 63.867188 L 13.601562 63.867188 C 13.417969 63.867188 13.3125 63.75 13.3125 63.578125 Z M 13.3125 63.578125 "/>
<path style=" stroke:none;fill-rule:nonzero;fill:rgb(9.411765%,12.941176%,15.686275%);fill-opacity:1;" d="M 22.796875 63.578125 C 22.894531 63.761719 22.808594 63.867188 22.664062 63.867188 L 22.320312 63.867188 C 22.140625 63.867188 22.101562 63.8125 22.003906 63.644531 L 20.675781 61.25 L 19.101562 61.25 L 19.101562 63.578125 C 19.101562 63.75 19.003906 63.867188 18.832031 63.867188 L 18.597656 63.867188 C 18.425781 63.867188 18.328125 63.75 18.328125 63.578125 L 18.328125 57.902344 C 18.328125 57.722656 18.433594 57.613281 18.617188 57.613281 L 20.699219 57.613281 C 22.140625 57.613281 22.902344 58.296875 22.902344 59.441406 C 22.902344 60.355469 22.394531 60.960938 21.46875 61.175781 Z M 19.101562 60.605469 L 20.859375 60.605469 C 21.652344 60.605469 22.113281 60.117188 22.113281 59.453125 C 22.113281 58.777344 21.652344 58.296875 20.859375 58.296875 L 19.101562 58.296875 Z M 19.101562 60.605469 "/>
<path style=" stroke:none;fill-rule:nonzero;fill:rgb(9.411765%,12.941176%,15.686275%);fill-opacity:1;" d="M 28.816406 57.886719 L 26.226562 63.683594 C 26.152344 63.859375 26.085938 63.917969 25.96875 63.917969 L 25.921875 63.917969 C 25.796875 63.917969 25.742188 63.851562 25.667969 63.683594 L 23.078125 57.886719 C 23.011719 57.742188 23.109375 57.617188 23.261719 57.617188 L 23.59375 57.617188 C 23.765625 57.617188 23.859375 57.703125 23.9375 57.886719 L 25.949219 62.558594 L 27.976562 57.886719 C 28.050781 57.703125 28.144531 57.617188 28.316406 57.617188 L 28.632812 57.617188 C 28.785156 57.617188 28.871094 57.742188 28.816406 57.886719 Z M 28.816406 57.886719 "/>
<path style=" stroke:none;fill-rule:nonzero;fill:rgb(9.411765%,12.941176%,15.686275%);fill-opacity:1;" d="M 29.53125 63.578125 L 29.53125 57.90625 C 29.53125 57.722656 29.628906 57.617188 29.800781 57.617188 L 30.039062 57.617188 C 30.210938 57.617188 30.304688 57.722656 30.304688 57.90625 L 30.304688 63.578125 C 30.304688 63.75 30.210938 63.867188 30.039062 63.867188 L 29.800781 63.867188 C 29.628906 63.867188 29.53125 63.75 29.53125 63.578125 Z M 29.53125 63.578125 "/>
<path style=" stroke:none;fill-rule:nonzero;fill:rgb(9.411765%,12.941176%,15.686275%);fill-opacity:1;" d="M 31.660156 63.578125 L 31.660156 57.90625 C 31.660156 57.722656 31.765625 57.617188 31.949219 57.617188 L 35.550781 57.617188 C 35.722656 57.617188 35.828125 57.710938 35.828125 57.886719 L 35.828125 58.027344 C 35.828125 58.203125 35.722656 58.296875 35.550781 58.296875 L 32.4375 58.296875 L 32.4375 60.375 L 34.851562 60.375 C 35.023438 60.375 35.136719 60.472656 35.136719 60.644531 L 35.136719 60.78125 C 35.136719 60.960938 35.023438 61.046875 34.851562 61.046875 L 32.4375 61.046875 L 32.4375 63.183594 L 35.550781 63.183594 C 35.722656 63.183594 35.835938 63.277344 35.835938 63.453125 L 35.835938 63.597656 C 35.835938 63.769531 35.722656 63.867188 35.550781 63.867188 L 31.949219 63.867188 C 31.765625 63.867188 31.660156 63.75 31.660156 63.578125 Z M 31.660156 63.578125 "/>
<path style=" stroke:none;fill-rule:nonzero;fill:rgb(9.411765%,12.941176%,15.686275%);fill-opacity:1;" d="M 44.476562 57.886719 L 42.367188 63.683594 C 42.3125 63.859375 42.242188 63.917969 42.121094 63.917969 L 42.089844 63.917969 C 41.976562 63.917969 41.902344 63.859375 41.84375 63.683594 L 40.25 59.117188 L 38.691406 63.683594 C 38.625 63.859375 38.558594 63.917969 38.4375 63.917969 L 38.417969 63.917969 C 38.292969 63.917969 38.226562 63.859375 38.160156 63.683594 L 36.058594 57.886719 C 36 57.742188 36.085938 57.617188 36.238281 57.617188 L 36.5625 57.617188 C 36.734375 57.617188 36.859375 57.703125 36.917969 57.886719 L 38.445312 62.375 L 40 57.796875 C 40.066406 57.625 40.125 57.566406 40.25 57.566406 L 40.289062 57.566406 C 40.414062 57.566406 40.480469 57.625 40.535156 57.796875 L 42.128906 62.414062 L 43.695312 57.882812 C 43.761719 57.699219 43.886719 57.613281 44.058594 57.613281 L 44.296875 57.613281 C 44.449219 57.617188 44.527344 57.734375 44.476562 57.886719 Z M 44.476562 57.886719 "/>
<path style=" stroke:none;fill-rule:nonzero;fill:rgb(9.411765%,12.941176%,15.686275%);fill-opacity:1;" d="M 46.921875 63.578125 L 46.921875 57.90625 C 46.921875 57.722656 47.019531 57.617188 47.191406 57.617188 L 47.429688 57.617188 C 47.601562 57.617188 47.695312 57.722656 47.695312 57.90625 L 47.695312 60.375 L 51.203125 60.375 L 51.203125 57.90625 C 51.203125 57.722656 51.296875 57.617188 51.46875 57.617188 L 51.714844 57.617188 C 51.886719 57.617188 51.972656 57.722656 51.972656 57.90625 L 51.972656 63.578125 C 51.972656 63.75 51.886719 63.867188 51.714844 63.867188 L 51.46875 63.867188 C 51.296875 63.867188 51.203125 63.75 51.203125 63.578125 L 51.203125 61.058594 L 47.695312 61.058594 L 47.695312 63.578125 C 47.695312 63.75 47.601562 63.867188 47.429688 63.867188 L 47.191406 63.867188 C 47.019531 63.867188 46.921875 63.75 46.921875 63.578125 Z M 46.921875 63.578125 "/>
<path style=" stroke:none;fill-rule:nonzero;fill:rgb(9.411765%,12.941176%,15.686275%);fill-opacity:1;" d="M 53.332031 63.578125 L 53.332031 57.90625 C 53.332031 57.722656 53.4375 57.617188 53.621094 57.617188 L 57.21875 57.617188 C 57.390625 57.617188 57.496094 57.710938 57.496094 57.886719 L 57.496094 58.027344 C 57.496094 58.203125 57.390625 58.296875 57.21875 58.296875 L 54.105469 58.296875 L 54.105469 60.375 L 56.523438 60.375 C 56.695312 60.375 56.808594 60.472656 56.808594 60.644531 L 56.808594 60.78125 C 56.808594 60.960938 56.695312 61.046875 56.523438 61.046875 L 54.105469 61.046875 L 54.105469 63.183594 L 57.21875 63.183594 C 57.390625 63.183594 57.507812 63.277344 57.507812 63.453125 L 57.507812 63.597656 C 57.507812 63.769531 57.390625 63.867188 57.21875 63.867188 L 53.621094 63.867188 C 53.4375 63.867188 53.332031 63.75 53.332031 63.578125 Z M 53.332031 63.578125 "/>
<path style=" stroke:none;fill-rule:nonzero;fill:rgb(9.411765%,12.941176%,15.686275%);fill-opacity:1;" d="M 62.816406 63.578125 C 62.914062 63.761719 62.828125 63.867188 62.683594 63.867188 L 62.339844 63.867188 C 62.15625 63.867188 62.117188 63.8125 62.023438 63.644531 L 60.695312 61.25 L 59.121094 61.25 L 59.121094 63.578125 C 59.121094 63.75 59.023438 63.867188 58.851562 63.867188 L 58.613281 63.867188 C 58.441406 63.867188 58.347656 63.75 58.347656 63.578125 L 58.347656 57.902344 C 58.347656 57.722656 58.453125 57.613281 58.632812 57.613281 L 60.714844 57.613281 C 62.160156 57.613281 62.921875 58.296875 62.921875 59.441406 C 62.921875 60.355469 62.414062 60.960938 61.488281 61.175781 Z M 59.121094 60.605469 L 60.878906 60.605469 C 61.671875 60.605469 62.128906 60.117188 62.128906 59.453125 C 62.128906 58.777344 61.671875 58.296875 60.878906 58.296875 L 59.121094 58.296875 Z M 59.121094 60.605469 "/>
<path style=" stroke:none;fill-rule:nonzero;fill:rgb(9.411765%,12.941176%,15.686275%);fill-opacity:1;" d="M 63.417969 60.742188 C 63.417969 58.886719 64.84375 57.5 66.703125 57.5 C 68.566406 57.5 70 58.886719 70 60.742188 C 70 62.597656 68.566406 63.984375 66.703125 63.984375 C 64.84375 63.980469 63.417969 62.597656 63.417969 60.742188 Z M 69.214844 60.742188 C 69.214844 59.273438 68.128906 58.214844 66.703125 58.214844 C 65.292969 58.214844 64.203125 59.273438 64.203125 60.742188 C 64.203125 62.210938 65.292969 63.269531 66.703125 63.269531 C 68.128906 63.269531 69.214844 62.210938 69.214844 60.742188 Z M 69.214844 60.742188 "/>
</g>
</defs>
<g id="surface1">
<path style=" stroke:none;fill-rule:evenodd;fill:rgb(9.411765%,12.941176%,15.686275%);fill-opacity:1;" d="M 46.289062 3.210938 C 46.289062 3.210938 46.976562 5.300781 47.011719 6.464844 C 47.011719 6.464844 48.347656 8.5 47.609375 9.957031 C 46.867188 11.394531 43.816406 11.792969 42.335938 11.410156 C 42.335938 11.410156 42.914062 11.917969 44.285156 12.15625 C 44.285156 12.15625 44.355469 12.832031 44.394531 12.957031 C 44.429688 13.066406 49.757812 13.117188 50.695312 13.519531 C 51.617188 13.898438 55.300781 20.664062 55.046875 21.863281 C 54.816406 23.0625 49.792969 27.042969 49.792969 27.042969 C 48.148438 34.570312 45.152344 42.859375 40.457031 49.167969 C 37.550781 53.058594 36.808594 50.386719 37.117188 46.386719 C 37.15625 45.953125 38.21875 45.460938 38.21875 45.460938 C 38.21875 45.460938 38.707031 36.5 38.148438 30.460938 C 38.148438 30.460938 33.179688 26.171875 30.796875 25.644531 C 29.121094 25.261719 30.742188 20.714844 32.152344 17.738281 C 29.625 20.082031 27.984375 27.0625 29.625 27.027344 C 31.269531 26.988281 37.03125 30.699219 37.15625 31.660156 C 37.265625 32.441406 37.210938 37.96875 37.195312 40.1875 C 29.738281 39.96875 27.804688 34.515625 23.597656 34.515625 C 21.050781 34.515625 19.355469 35.625 18.324219 36.589844 C 18.363281 30.917969 21.953125 26.261719 21.953125 26.261719 C 16.304688 32.007812 17.152344 38.042969 17.152344 38.042969 C 5.558594 31.972656 30.855469 16.683594 32.609375 14.972656 C 33.960938 13.664062 35.460938 13.117188 35.371094 13.246094 C 35.28125 13.355469 34.992188 13.847656 34.992188 13.847656 C 36.039062 12.753906 39.417969 12.285156 39.417969 12.285156 C 39.488281 11.539062 39.578125 10.539062 39.5625 10.085938 C 39.507812 9.066406 38.226562 3.707031 39.542969 3.539062 C 39.542969 3.539062 39.363281 2.488281 40.664062 1.996094 C 41.964844 1.523438 45.410156 0.902344 46.207031 0.140625 C 47.011719 -0.644531 47.300781 2.628906 46.289062 3.210938 Z M 36.339844 19.9375 C 36.089844 19.953125 34.734375 22.390625 34.769531 22.703125 C 34.808594 22.992188 37.171875 25.339844 37.875 26.007812 C 37.875 26.007812 37.695312 23.265625 37.605469 21.828125 C 37.570312 21.0625 37.082031 20.226562 36.339844 19.9375 Z M 50.226562 23.71875 C 51.019531 23.117188 51.832031 21.917969 51.90625 21.5 C 51.976562 21.082031 51.039062 19.554688 50.515625 19.136719 C 50.460938 20.589844 50.351562 22.480469 50.226562 23.71875 Z M 50.226562 23.71875 "/>
<use xlink:href="#surface5"/>
</g>
</svg>
