<?xml version="1.0" encoding="UTF-8" standalone="no"?>
<svg
   xmlns:dc="http://purl.org/dc/elements/1.1/"
   xmlns:cc="http://creativecommons.org/ns#"
   xmlns:rdf="http://www.w3.org/1999/02/22-rdf-syntax-ns#"
   xmlns:svg="http://www.w3.org/2000/svg"
   xmlns="http://www.w3.org/2000/svg"
   id="svg53"
   xml:space="preserve"
   viewBox="0 0 550 445"
   height="445"
   width="550"
   version="1.1"><metadata
     id="metadata57"><rdf:RDF><cc:Work
         rdf:about=""><dc:format>image/svg+xml</dc:format><dc:type
           rdf:resource="http://purl.org/dc/dcmitype/StillImage" /></cc:Work></rdf:RDF></metadata><defs
     id="defs4"><style
       id="style2"
       type="text/css">@import url(&quot;https://fonts.googleapis.com/css2?family=Rationale:wght@400&quot;);</style></defs><defs
     id="defs6" /><g
     id="icon"
     transform="matrix(0.17 0 0 0.17 89.1 222.5)"><g
       id="g42"
       style=""><g
         id="icon_piece"
         transform="matrix(1.33 0 0 1.33 67.43 0)"><linearGradient
           y2="512"
           x2="308.37109300000003"
           y1="0"
           x1="0"
           gradientTransform="matrix(1 0 0 1 101.39 0)"
           gradientUnits="userSpaceOnUse"
           id="SVGID_11"><stop
             id="stop8"
             style="stop-color:rgb(2,124,138);stop-opacity: 1"
             offset="0%" /></linearGradient><path
           id="path11"
           stroke-linecap="round"
           d="m 323.023438 133.773438 h -29.160157 l 23.46875 -23.464844 v -48.550782 c 0 -34.054687 -27.707031 -61.757812 -61.761719 -61.757812 c -34.050781 0 -61.757812 27.703125 -61.757812 61.757812 v 48.550782 l 23.46875 23.46875 h -29.164062 l -86.730469 86.730468 v 29.191407 l 54.414062 54.414062 h 29.832031 l 3.761719 -3.761719 v 211.648438 h 53.59375 l 12.585938 -12.582031 l 12.582031 12.582031 h 53.589844 v -211.648438 l 3.765625 3.765626 h 29.832031 l 54.414062 -54.414063 v -29.195313 z m -34.296876 15 l -12.160156 27.890624 l -2.675781 -27.890624 z m -41.804687 56.210937 l 5.390625 -56.210937 h 6.511719 l 5.394531 56.210937 l -7.859375 18.015625 h -1.585937 z m -38.109375 -100.886719 v -42.339844 c 0 -25.78125 20.976562 -46.757812 46.757812 -46.757812 c 25.785157 0 46.761719 20.976562 46.761719 46.757812 v 42.339844 l -29.679687 29.679688 h -34.160156 z m 28.429688 44.675782 l -2.675782 27.890624 l -12.160156 -27.890624 z m 157.515624 94.714843 l -45.628906 45.625 h -17.402344 l -13.402343 -13.398437 l 40.609375 -40.609375 l -52.1875 -52.1875 v 314.082031 h -32.378906 l -11.261719 -11.261719 c -0.070313 -153.347656 0 -153.347656 0 -153.347656 h -15.070313 v 153.347656 l -11.257812 11.261719 h -32.382813 v -314.082031 l -52.1875 52.1875 l 40.609375 40.609375 l -13.398437 13.398437 h -17.402344 l -45.628906 -45.625 v -16.769531 l 77.945312 -77.941406 h 11.710938 c 28.9375 66.363281 22.660156 51.964844 38.90625 89.222656 h 21.234375 c 16.011718 -36.722656 10.320312 -23.667969 38.90625 -89.222656 h 11.722656 l 77.945312 77.941406 z m -73.011718 7.589844 v -31.949219 l 15.976562 15.976563 z m -132.351563 -31.949219 v 31.949219 l -15.972656 -15.976563 z m 0 0"
           transform=" translate(-255.57, -256)"
           style="stroke: none; stroke-width: 1; stroke-dasharray: none; stroke-linecap: butt; stroke-dashoffset: 0; stroke-linejoin: miter; stroke-miterlimit: 4; fill: url(#SVGID_11); fill-rule: nonzero; opacity: 1;" /></g><g
         id="g19"
         transform="matrix(1.33 0 0 1.33 -151.45 124.49)"><linearGradient
           y2="222.109375"
           x2="182.824219"
           y1="0"
           x1="0"
           gradientTransform="matrix(1 0 0 1 0 238.31)"
           gradientUnits="userSpaceOnUse"
           id="SVGID_12"><stop
             id="stop14"
             style="stop-color:rgb(2,124,138);stop-opacity: 1"
             offset="0%" /></linearGradient><path
           id="path17"
           stroke-linecap="round"
           d="m 136.472656 438.574219 c -4.226562 -2.480469 -8.046875 -3.242188 -11.332031 -3.898438 c -3.976563 -0.796875 -6.605469 -1.320312 -10.300781 -5.015625 c -5.820313 -5.820312 -3.972656 -9.628906 -6.875 -17.355468 l 39.957031 -39.953126 l -10.609375 -10.609374 l -38.164062 38.167968 c -6.269532 -5.613281 -11.855469 -6.730468 -16.410157 -7.636718 c -3.980469 -0.796876 -6.605469 -1.320313 -10.300781 -5.015626 c -3.695312 -3.691406 -4.21875 -6.320312 -5.011719 -10.300781 c -0.910156 -4.554687 -2.027343 -10.136719 -7.640625 -16.410156 l 52.832032 -52.832031 l -10.605469 -10.609375 l -54.625 54.625 c -7.722657 -2.902344 -11.53125 -1.050781 -17.347657 -6.871094 c -3.695312 -3.691406 -4.21875 -6.320313 -5.015624 -10.296875 c -0.695313 -3.484375 -1.511719 -7.574219 -4.371094 -12.109375 l 73.535156 -73.53125 l -10.605469 -10.609375 l -83.582031 83.582031 c 7.96875 7.972657 8.824219 8.128907 10.316406 15.605469 c 0.984375 4.929688 2.207032 11.0625 9.113282 17.96875 s 13.042968 8.132812 17.972656 9.117188 c 3.976562 0.792968 6.605468 1.316406 10.296875 5.011718 c 3.695312 3.691406 4.222656 6.320313 5.015625 10.300782 c 0.984375 4.929687 2.207031 11.0625 9.113281 17.96875 s 13.042969 8.132812 17.972656 9.117187 c 3.976563 0.792969 6.605469 1.320313 10.300781 5.011719 c 3.691407 3.695312 4.21875 6.324218 5.011719 10.304687 c 0.988281 4.929688 2.210938 11.0625 9.117188 17.972657 c 6.910156 6.90625 13.042969 8.128906 17.972656 9.117187 c 7.570313 1.511719 7.570313 2.277344 16.320313 11.03125 l 44.300781 -57.183594 l -11.855469 -9.183593 z m 0 0"
           transform=" translate(-91.41, -349.37)"
           style="stroke: none; stroke-width: 1; stroke-dasharray: none; stroke-linecap: butt; stroke-dashoffset: 0; stroke-linejoin: miter; stroke-miterlimit: 4; fill: url(#SVGID_12); fill-rule: nonzero; opacity: 1;" /></g><g
         id="g26"
         transform="matrix(1.33 0 0 1.33 91.93 -243.61)"><linearGradient
           y2="96.578125"
           x2="36.761719"
           y1="0"
           x1="0"
           gradientTransform="matrix(1 0 0 1 255.57 25)"
           gradientUnits="userSpaceOnUse"
           id="SVGID_13"><stop
             id="stop21"
             style="stop-color:rgb(2,124,138);stop-opacity: 1"
             offset="0%" /></linearGradient><path
           id="path24"
           stroke-linecap="round"
           d="m 270.707031 121.578125 l -10.609375 -10.605469 l 17.234375 -17.230468 v -27.949219 h 15 v 34.160156 z m 6.175781 -64.226563 c -0.75 -3.632812 -2.449218 -7.046874 -4.910156 -9.871093 l 11.308594 -9.855469 c 4.152344 4.765625 7.019531 10.535156 8.292969 16.695312 z m -10.652343 -14.558593 c -3.238281 -1.828125 -6.921875 -2.792969 -10.660157 -2.792969 v -15 c 6.316407 0 12.554688 1.636719 18.035157 4.734375 z m 0 0"
           transform=" translate(-273.95, -73.29)"
           style="stroke: none; stroke-width: 1; stroke-dasharray: none; stroke-linecap: butt; stroke-dashoffset: 0; stroke-linejoin: miter; stroke-miterlimit: 4; fill: url(#SVGID_13); fill-rule: nonzero; opacity: 1;" /></g><g
         id="g33"
         transform="matrix(1.33 0 0 1.33 -70.78 154.72)"><linearGradient
           y2="100.859375"
           x2="54.957031"
           y1="0"
           x1="0"
           gradientTransform="matrix(1 0 0 1 124.44 321.61)"
           gradientUnits="userSpaceOnUse"
           id="SVGID_14"><stop
             id="stop28"
             style="stop-color:rgb(2,124,138);stop-opacity: 1"
             offset="0%" /></linearGradient><path
           id="path31"
           stroke-linecap="round"
           d="m 136.296875 422.472656 l -11.859375 -9.183594 l 37.035156 -47.804687 l 11.855469 9.1875 z m 43.097656 -60.859375 h -15 v -15 h 15 z m 0 -25 h -15 v -15 h 15 z m 0 0"
           transform=" translate(-151.92, -372.04)"
           style="stroke: none; stroke-width: 1; stroke-dasharray: none; stroke-linecap: butt; stroke-dashoffset: 0; stroke-linejoin: miter; stroke-miterlimit: 4; fill: url(#SVGID_14); fill-rule: nonzero; opacity: 1;" /></g><g
         id="g40"
         transform="matrix(1.33 0 0 1.33 112.33 201.28)"><linearGradient
           y2="141.210937"
           x2="15"
           y1="0"
           x1="0"
           gradientTransform="matrix(1 0 0 1 281.75 336.36)"
           gradientUnits="userSpaceOnUse"
           id="SVGID_15"><stop
             id="stop35"
             style="stop-color:rgb(2,124,138);stop-opacity: 1"
             offset="0%" /></linearGradient><path
           id="path38"
           stroke-linecap="round"
           d="m 296.746094 477.566406 h -15 v -91.210937 h 15 z m 0 -101.210937 h -15 v -15 h 15 z m 0 -25 h -15 v -15 h 15 z m 0 0"
           transform=" translate(-289.25, -406.96)"
           style="stroke: none; stroke-width: 1; stroke-dasharray: none; stroke-linecap: butt; stroke-dashoffset: 0; stroke-linejoin: miter; stroke-miterlimit: 4; fill: url(#SVGID_15); fill-rule: nonzero; opacity: 1;" /></g></g></g><g
     id="logo-name"
     style=""
     transform="matrix(1.98 0 0 1.98 347 223.49)"><linearGradient
       y2="33.89999999999999"
       x2="0"
       y1="0"
       x1="0"
       gradientTransform="matrix(1 0 0 1 -87.73 -16.95)"
       gradientUnits="userSpaceOnUse"
       id="SVGID_17"><stop
         id="stop45"
         style="stop-color:rgb(2,124,138);stop-opacity: 1"
         offset="0%" /></linearGradient><text
       id="text50"
       style="stroke: none; stroke-width: 1; stroke-dasharray: none; stroke-linecap: butt; stroke-dashoffset: 0; stroke-linejoin: miter; stroke-miterlimit: 4; fill: url(#SVGID_17); fill-rule: nonzero; opacity: 1; white-space: pre;"
       font-weight="normal"
       font-style="normal"
       font-size="30"
       font-family="Rationale"
       xml:space="preserve"><tspan
         id="tspan48"
         y="9.42"
         x="-87.73">INTERVIEW HERO</tspan></text>
</g></svg>